<svg xmlns="http://www.w3.org/2000/svg" width="800" height="800" viewBox="0 0 800 800" version="1.1"><path d="M 381 9.076 C 307.881 12.403, 234.314 37.525, 175.541 79.236 C 146.889 99.570, 115.098 129.336, 94.673 154.954 C 42.205 220.758, 12.209 300.490, 9.162 382.250 C 6.583 451.422, 19.307 512.847, 48.569 572.500 C 100.935 679.252, 199.674 756.746, 316 782.388 C 360.102 792.110, 410.782 793.923, 456.500 787.414 C 510.139 779.777, 562.865 760.250, 609.500 730.749 C 634.602 714.870, 653.858 699.277, 677.033 676.063 C 739.393 613.597, 776.556 537.680, 788.676 448 C 791.306 428.534, 791.306 371.466, 788.676 352 C 778.455 276.369, 751.563 213.227, 704.137 153.500 C 691.502 137.589, 661.795 108.004, 645 94.607 C 595.708 55.288, 539.054 28.717, 478.560 16.545 C 457.500 12.307, 440.795 10.156, 423.649 9.475 C 416.417 9.188, 407.575 8.811, 404 8.639 C 400.425 8.466, 390.075 8.663, 381 9.076 M 394.438 38.463 C 382.647 40.605, 382.751 40.540, 383.530 45.340 C 383.902 47.628, 384.497 49.807, 384.853 50.182 C 385.209 50.557, 389.325 49.735, 394 48.355 C 405.510 44.957, 417.817 44.680, 423.500 47.691 C 427.840 49.990, 431 54.413, 431 58.188 L 431 60.568 421.250 59.711 C 408.008 58.547, 371.306 59.540, 356 61.477 C 279.980 71.096, 211.791 102.760, 160.275 152.361 L 150.034 162.221 154.005 166.861 L 157.977 171.500 150.591 172.194 C 137.425 173.430, 130.013 178.165, 124.860 188.632 C 121.983 194.476, 121.643 196.103, 121.575 204.326 C 121.503 213.169, 121.583 213.512, 123.805 213.827 C 126.708 214.238, 128.731 212.579, 130.507 208.330 C 131.709 205.452, 132.375 205, 135.414 205 C 139.295 205, 141 206.981, 141 211.492 C 141 213.952, 141.259 214.096, 145.167 213.807 L 149.334 213.500 155.504 196 C 158.898 186.375, 161.863 177.930, 162.093 177.232 C 162.338 176.492, 165.784 179.256, 170.377 183.876 L 178.242 191.788 172.688 193.402 C 163.133 196.180, 159.210 200.706, 157 211.500 C 155.630 218.194, 153.774 222.398, 150.709 225.750 C 147.831 228.897, 142.098 228.795, 138.216 225.528 C 135.141 222.941, 134 223.108, 134 226.146 C 134 228.758, 143.517 233.979, 148.300 233.991 C 156.663 234.011, 161.030 228.815, 166.185 212.709 C 167.807 207.644, 169.813 202.450, 170.644 201.166 C 172.627 198.105, 178.311 195.797, 183.029 196.138 C 186.787 196.409, 190.027 194.771, 189.970 192.628 C 189.954 192.007, 183.675 184.812, 176.018 176.638 L 162.094 161.776 177.297 148.837 L 192.500 135.898 193.046 140.199 C 194.113 148.607, 197.705 152.012, 205.473 151.978 C 212.794 151.946, 218.452 149.027, 221.761 143.576 C 225.986 136.614, 229.453 138.206, 227.109 146.030 C 225.600 151.066, 221.778 155.537, 216.624 158.294 C 210.882 161.365, 194.231 161.434, 185.869 158.420 C 180.483 156.479, 180.188 156.469, 179.119 158.182 C 178.503 159.167, 178 160.186, 178 160.446 C 178 161.336, 190.489 164.775, 198.279 166.030 C 213.265 168.445, 226.815 165.042, 232.643 157.401 C 236.354 152.537, 237.081 142.015, 234.042 137.190 C 231.705 133.481, 226.754 131, 221.690 131 C 218.597 131, 218.213 131.347, 217.065 135.178 C 215.296 141.080, 213.093 144.063, 209.343 145.630 C 202.756 148.382, 198.285 143.555, 201.109 136.738 C 202.792 132.673, 208.234 126.604, 212.347 124.203 C 215.090 122.602, 217.206 122.416, 228.623 122.778 L 241.746 123.194 240.917 126.847 C 239.902 131.319, 241.950 142.022, 244.943 147.889 C 247.307 152.522, 246.981 152.338, 250.467 151.013 C 253.040 150.034, 253.049 149.995, 251.401 146.808 C 248.417 141.039, 248.431 132.520, 251.438 123.578 L 254.101 115.657 252.086 113.641 C 250.214 111.770, 249.942 111.743, 248.267 113.258 C 244.321 116.829, 237.645 118.956, 230.309 118.978 C 223.158 119, 220.894 118.121, 223.261 116.243 C 224.977 114.882, 256.199 98.234, 257.796 97.829 C 258.647 97.613, 261.667 104.007, 266.598 116.469 C 270.727 126.902, 274.302 135.635, 274.542 135.875 C 274.994 136.327, 283 132.977, 283 132.337 C 283 132.139, 279.850 123.725, 276 113.639 C 272.150 103.553, 269 94.816, 269 94.224 C 269 92.774, 287.287 85.799, 302.303 81.522 C 328.181 74.152, 365.885 68.227, 389.959 67.748 L 402.418 67.500 403.353 70.110 C 404.781 74.099, 403.435 78, 400.630 78 C 399.348 78, 396.879 78.495, 395.145 79.099 C 392.270 80.102, 391.672 79.919, 388.384 77.032 C 380.120 69.776, 371.980 70.165, 364.276 78.185 L 361.052 81.541 364.691 84.445 L 368.330 87.349 371.415 83.785 C 376.798 77.566, 382.509 76.252, 387.408 80.107 L 390.087 82.213 386.435 85.370 L 382.783 88.526 386.578 91.226 L 390.372 93.926 393.702 90.035 C 397.604 85.476, 402.844 83.311, 405.951 84.974 C 407.652 85.884, 407.998 87.040, 407.986 91.785 C 407.979 94.928, 407.705 98.499, 407.378 99.719 C 406.816 101.816, 406.625 101.858, 403.941 100.469 C 399.906 98.383, 391.946 98.622, 381.394 101.146 C 370.123 103.842, 368.517 103.419, 369.387 97.983 C 370.025 93.989, 369.582 93.456, 366.582 94.607 C 364.579 95.375, 364.489 100.842, 366.403 105.423 C 368.937 111.487, 375.987 111.907, 392.993 107.007 C 398.941 105.293, 405.743 105.743, 408 108 C 410.896 110.896, 413.802 110.573, 414.731 107.250 C 415.154 105.737, 415.500 100.301, 415.500 95.168 C 415.500 85.940, 415.465 85.804, 412.313 82.988 C 409.622 80.584, 409.349 79.955, 410.563 78.948 C 411.439 78.221, 412 75.922, 412 73.057 L 412 68.359 420.750 68.799 C 425.563 69.042, 429.703 69.427, 429.951 69.655 C 430.338 70.010, 428.019 93.445, 426.274 106.815 L 425.710 111.129 430.098 110.815 L 434.485 110.500 435.631 101 C 436.261 95.775, 437.328 86.888, 438.001 81.250 L 439.225 71 442.487 71 C 445.342 71, 445.828 70.609, 446.375 67.875 C 447.449 62.503, 447.237 62.133, 442.894 61.807 C 438.994 61.515, 438.696 61.258, 436.969 56.692 C 433.178 46.674, 425.874 40.684, 414.554 38.311 C 407.201 36.769, 403.614 36.797, 394.438 38.463 M 473.109 69.250 C 470.614 75.919, 470.170 75.406, 480.621 77.926 C 485.917 79.203, 496.607 82.150, 504.375 84.476 C 516.083 87.980, 518.500 89.028, 518.500 90.598 C 518.500 92.788, 521.017 92.873, 490.250 89.648 L 469 87.421 469.014 90.461 C 469.039 96.022, 469.995 97.776, 473.342 98.406 C 478.805 99.433, 488.721 104.701, 493.522 109.127 C 498.710 113.909, 502.226 119.450, 504.072 125.750 C 506.307 133.383, 507.873 131.727, 517.540 111.500 C 522.404 101.325, 526.692 93, 527.070 93 C 527.673 93, 539.027 97.930, 539.791 98.523 C 539.952 98.648, 535.789 106.973, 530.541 117.025 C 525.294 127.076, 521 135.448, 521 135.630 C 521 135.811, 522.810 136.883, 525.023 138.012 L 529.046 140.064 537.983 121.479 L 546.920 102.894 550.242 103.517 C 553.328 104.097, 553.689 103.874, 555.362 100.366 C 557.066 96.794, 557.070 96.524, 555.432 95.327 C 552.808 93.408, 533.046 85.230, 519 80.250 C 507.711 76.248, 476.852 67, 474.787 67 C 474.327 67, 473.572 68.013, 473.109 69.250 M 326.929 78.369 C 322.173 79.650, 315.199 83.365, 310.963 86.876 L 308.500 88.917 312.992 92.835 C 317.453 96.726, 317.495 96.738, 318.892 94.627 C 326.138 83.673, 334.729 80.584, 340.407 86.888 C 342.069 88.733, 342.169 89.494, 341.179 92.798 C 338.315 102.356, 327.278 110, 316.341 110 C 306.988 110, 298.979 106.502, 285.309 96.446 C 283.683 95.250, 282.652 95.100, 281.309 95.863 C 279.704 96.776, 280.347 97.724, 287 104.262 C 295.198 112.317, 301.804 116.028, 311.479 118.011 C 323.737 120.524, 334.876 117.198, 342.727 108.680 C 356.500 93.738, 345.837 73.280, 326.929 78.369 M 499.456 99.708 L 496.411 100.096 501.868 106.053 L 507.324 112.010 510.662 105.988 C 512.498 102.676, 514 99.748, 514 99.483 C 514 98.948, 504.229 99.100, 499.456 99.708 M 565.240 106.110 C 556.905 110.236, 553.681 119.304, 558.170 126 C 563.077 133.319, 577.437 136.665, 584.359 132.102 C 593.810 125.871, 593.175 113.078, 583.078 106.274 C 578.632 103.278, 571.102 103.208, 565.240 106.110 M 567.255 113.058 C 563.260 114.285, 560.560 118.110, 561.381 121.380 C 562.537 125.989, 573.473 128.385, 582.238 125.951 C 588.481 124.217, 589.855 118.452, 584.903 114.769 C 581.846 112.496, 572.148 111.556, 567.255 113.058 M 601.442 129.061 C 598.622 132.004, 598.612 132.056, 600.546 133.885 C 602.285 135.530, 637.551 166.574, 646.863 174.657 C 648.863 176.393, 650.275 178.017, 650 178.264 C 648.252 179.841, 640.573 185, 639.975 185 C 639.576 185, 639.001 183.762, 638.697 182.250 C 637.305 175.322, 629.976 168.569, 622.659 167.472 C 618.560 166.857, 618.426 166.713, 616.785 161.145 C 613.325 149.402, 606.157 143.346, 596.785 144.247 C 591.268 144.777, 587.629 147.038, 584.162 152.092 C 581.393 156.127, 581.585 162.178, 584.614 166.378 C 586.541 169.051, 594.312 173.323, 599.250 174.425 C 601.966 175.031, 602 174.976, 602 170.019 C 602 165.097, 601.941 165, 598.968 165 C 592.937 165, 587 161.064, 587 157.066 C 587 154.348, 591.073 152, 595.788 152 C 607.400 152, 614 159.467, 614 172.605 L 614 179.896 617.066 178.827 C 618.752 178.239, 622.437 177.980, 625.254 178.250 C 629.547 178.663, 630.912 179.328, 633.688 182.357 C 635.510 184.344, 637 186.583, 637 187.332 C 637 188.081, 632.540 192.220, 627.088 196.530 L 617.177 204.365 619.707 207.683 C 621.099 209.507, 622.524 211, 622.875 211 C 623.225 211, 630.867 205.105, 639.857 197.901 C 648.847 190.696, 656.516 185.184, 656.901 185.651 C 660.583 190.123, 665 195.926, 665 196.291 C 665 196.541, 657.373 202.019, 648.051 208.465 L 631.102 220.184 633.301 223.580 C 634.511 225.447, 635.847 226.981, 636.272 226.988 C 636.696 226.994, 644.346 222.133, 653.272 216.184 C 662.197 210.235, 670.001 205.071, 670.614 204.709 C 671.281 204.314, 674.427 208.104, 678.455 214.153 L 685.182 224.257 681.452 223.557 C 675.774 222.492, 667.392 222.720, 663.231 224.052 C 648.299 228.835, 643.969 245.729, 654.931 256.433 L 658.924 260.331 659.991 257.416 C 660.579 255.812, 661.248 253.960, 661.479 253.300 C 661.710 252.640, 660.375 251.159, 658.513 250.008 C 654.041 247.244, 652.495 242.702, 654.224 237.407 C 656.103 231.653, 660.270 229.818, 670.588 230.200 C 677.956 230.473, 679.158 230.820, 684.088 234.095 C 691.025 238.703, 699.499 246.924, 698.370 247.952 C 697.892 248.387, 692.100 251.131, 685.500 254.048 C 678.900 256.965, 672.987 259.835, 672.360 260.426 C 671.637 261.107, 671.407 263.597, 671.732 267.226 C 672.219 272.676, 672.443 273.071, 676.372 275.403 C 678.642 276.751, 683.572 280.970, 687.328 284.780 L 694.155 291.707 689.718 292.315 C 684.708 293.002, 675.427 296.336, 672.671 298.440 C 671.200 299.563, 671.056 300.236, 671.934 301.877 L 673.026 303.917 676.716 301.740 C 681.800 298.740, 689.967 298.744, 696.066 301.750 C 698.577 302.988, 700.891 304, 701.208 304 C 701.525 304, 702.557 300.846, 703.502 296.992 C 705.591 288.468, 705.863 289.003, 692.971 276.293 L 683.711 267.165 692.836 262.583 C 697.854 260.062, 702.410 258, 702.960 258 C 704.388 258, 707.422 264.316, 713.480 279.899 C 725.110 309.815, 728.470 323.917, 726.075 332.753 C 724.617 338.127, 721.579 340.225, 715.855 339.811 C 710.328 339.412, 709.035 337.036, 709.015 327.250 L 709 320 703.500 320 L 698 320 698 324.134 C 698 332.649, 701.049 338.380, 708.349 343.587 L 711.198 345.620 708.625 349.410 C 705.033 354.704, 704.398 359.136, 706.459 364.533 C 707.393 366.978, 708.556 369.226, 709.044 369.527 C 709.717 369.943, 718 365.366, 718 364.579 C 718 364.493, 717.100 362.658, 716 360.500 C 713.539 355.674, 713.472 352.870, 715.750 350.072 C 717.393 348.054, 717.746 348.006, 721.500 349.301 C 729.236 351.968, 732.747 361.262, 729.118 369.467 C 726.404 375.601, 722.976 377, 710.657 377 C 705.483 377, 699.844 377.281, 698.125 377.625 C 695.139 378.222, 695 378.467, 695 383.112 L 695 387.974 702.250 387.508 C 706.237 387.252, 715.437 386.807, 722.692 386.520 L 735.885 385.998 736.192 390.249 L 736.500 394.500 741 394.500 L 745.500 394.500 745.811 388.500 C 745.982 385.200, 745.844 381.013, 745.505 379.195 L 744.889 375.890 737.838 376.585 L 730.787 377.279 733.566 373.080 C 736.803 368.189, 737.879 360.194, 736.048 354.647 C 735.399 352.679, 732.824 348.797, 730.327 346.019 L 725.787 340.969 728.439 337.491 C 732.280 332.455, 734.953 326.048, 734.978 321.815 C 735.078 305.079, 714.831 253.783, 696.779 225.039 C 689.109 212.824, 667.422 183.991, 657.638 173 C 649.250 163.577, 631.557 147.257, 617 135.518 C 604.316 125.289, 604.845 125.508, 601.442 129.061 M 383 132.992 C 297.206 138.737, 219.444 184.961, 173.538 257.502 C 166.271 268.985, 153.179 295.585, 148.470 308.435 C 130.597 357.202, 127.772 413.989, 140.662 465.401 C 145.485 484.639, 151.840 501.493, 161.438 520.500 C 180.754 558.753, 206.197 589.002, 240.500 614.492 C 305.702 662.943, 387.740 679.102, 466.544 659.016 C 561.028 634.934, 636.005 559.506, 659.398 465 C 670.094 421.790, 670.073 377.417, 659.338 334.599 C 634.606 235.955, 555.024 159.464, 454.905 138.106 C 434.179 133.685, 404.344 131.563, 383 132.992 M 548.068 134.904 C 546.931 136.502, 546 138.241, 546 138.768 C 546 139.296, 547.762 140.949, 549.917 142.442 C 558.790 148.591, 570 162.556, 570 167.460 C 570 169.642, 571.732 169.370, 573.006 166.988 C 574.937 163.380, 569.879 154.315, 557.250 138.750 C 554.238 135.037, 551.405 132, 550.955 132 C 550.504 132, 549.206 133.307, 548.068 134.904 M 140.984 180.856 C 136.738 183.117, 132.027 190.383, 131.301 195.790 L 130.766 199.781 135.202 199.281 C 138.567 198.901, 140.059 199.202, 141.383 200.526 C 142.381 201.524, 143.490 201.892, 143.973 201.386 C 144.782 200.538, 151 181.427, 151 179.790 C 151 178.303, 144.472 178.998, 140.984 180.856 M 94.660 233.714 L 90.114 241.428 94.122 244.081 L 98.130 246.734 93.058 250.458 C 82.694 258.065, 76.933 267.689, 76.221 278.583 C 75.850 284.263, 76.166 286.586, 77.816 290.316 C 80.699 296.834, 84.528 301.548, 88.451 303.410 C 99.146 308.485, 107.899 300.898, 109.999 284.732 C 111.480 273.332, 111.754 274, 105.595 274 L 100.189 274 100.711 281.750 C 101.013 286.240, 100.746 291.289, 100.077 293.753 C 98.852 298.262, 95.398 301.406, 92.299 300.833 C 89.576 300.329, 86.962 293.936, 86.313 286.192 C 85.600 277.686, 87.575 270.627, 92.608 263.698 C 96.274 258.649, 104.046 253, 107.326 253 C 108.390 253, 114.851 256.162, 121.684 260.026 C 128.517 263.890, 134.540 266.784, 135.068 266.458 C 135.596 266.131, 136.884 264.187, 137.930 262.137 L 139.832 258.409 122.166 248.529 C 112.450 243.095, 104.356 238.547, 104.180 238.421 C 104.004 238.296, 104.823 236.307, 106 234 C 107.177 231.693, 107.996 229.682, 107.820 229.530 C 106.890 228.728, 100.965 226, 100.153 226 C 99.632 226, 97.160 229.471, 94.660 233.714 M 64.673 303.750 C 63.879 305.091, 59.923 320.256, 60.276 320.609 C 60.464 320.798, 62.289 321.300, 64.330 321.726 L 68.042 322.500 63.876 328 C 54.921 339.823, 51.803 352.894, 55.381 363.621 C 57.267 369.277, 63.277 377.491, 67.244 379.835 C 69.857 381.378, 70.097 381.348, 72.244 379.197 C 74.364 377.075, 74.486 376.217, 74.266 364.992 C 73.945 348.563, 76.096 343.935, 81.643 349.123 C 84.966 352.232, 86.054 354.315, 87.972 361.241 L 89.563 366.982 93.290 364.449 C 97.695 361.455, 97.641 360.458, 92.464 349.271 C 89.082 341.963, 84.940 338.012, 80.651 338.004 C 77.524 337.997, 73.267 343.698, 70.742 351.276 C 66.851 362.950, 63 360.947, 63 347.251 C 63 339.756, 65.052 334.512, 70.269 328.673 L 73.500 325.057 90 329.017 C 99.075 331.195, 107.194 332.983, 108.043 332.989 C 109.871 333.002, 112.663 324.023, 111.123 323.084 C 110.595 322.763, 101.690 320.286, 91.332 317.581 C 80.974 314.875, 72.335 312.536, 72.134 312.382 C 71.933 312.228, 72.249 310.726, 72.835 309.044 C 73.856 306.116, 73.749 305.922, 70.328 304.493 C 66.293 302.807, 65.309 302.677, 64.673 303.750 M 82.650 471.250 C 81.893 473.038, 80.040 477.425, 78.532 481 C 77.024 484.575, 75.702 487.598, 75.594 487.718 C 75.486 487.838, 70.583 487.351, 64.699 486.636 C 58.814 485.922, 54 485.602, 54 485.926 C 54 486.250, 57.584 489.562, 61.965 493.285 C 71.003 500.968, 70.803 499.484, 64.498 512.004 C 62.504 515.964, 61.029 519.363, 61.222 519.556 C 61.415 519.749, 65.716 517.484, 70.779 514.524 L 79.984 509.141 87.992 516.674 C 92.396 520.818, 95.987 523.599, 95.972 522.854 C 95.956 522.109, 94.907 517.162, 93.640 511.861 L 91.337 502.221 101.359 496.861 L 111.381 491.500 106.941 490.824 C 104.498 490.452, 99.493 490.115, 95.817 490.074 C 88.154 489.989, 88.926 491.047, 86.451 477.250 C 85.539 472.163, 84.620 468, 84.410 468 C 84.199 468, 83.407 469.462, 82.650 471.250 M 705.359 478.789 L 703.399 489.500 692.950 490.250 C 687.203 490.662, 682.118 491.127, 681.650 491.283 C 681.182 491.439, 685.362 493.953, 690.939 496.870 C 698.691 500.924, 700.964 502.565, 700.589 503.837 C 699.202 508.537, 696 522.002, 696 523.132 C 696 523.847, 698.362 522.189, 701.250 519.448 C 704.138 516.706, 707.850 513.272, 709.500 511.815 L 712.500 509.167 721.497 514.504 C 726.445 517.438, 730.639 519.694, 730.817 519.517 C 730.994 519.339, 730.225 517.401, 729.107 515.210 C 727.990 513.020, 725.968 508.725, 724.616 505.666 L 722.156 500.105 730.572 492.880 C 735.201 488.906, 738.878 485.564, 738.744 485.452 C 738.610 485.341, 734 485.853, 728.500 486.589 C 723 487.325, 718.020 487.944, 717.433 487.964 C 716.846 487.984, 714.628 483.702, 712.506 478.450 C 710.383 473.197, 708.347 468.715, 707.982 468.489 C 707.617 468.264, 706.437 472.899, 705.359 478.789 M 130.132 573.250 C 129.143 575.587, 127.478 579.910, 126.432 582.855 L 124.529 588.210 113.017 587.491 L 101.506 586.772 110.160 593.947 L 118.815 601.122 114.311 610.631 C 111.833 615.861, 110.028 620.361, 110.298 620.631 C 110.568 620.901, 113.874 619.145, 117.644 616.729 C 129.809 608.934, 128.020 608.905, 137.049 617.044 C 141.422 620.987, 144.991 623.602, 144.980 622.856 C 144.969 622.110, 143.883 617.307, 142.568 612.182 L 140.175 602.864 142.963 601.182 C 144.497 600.257, 148.729 597.925, 152.367 596 C 156.006 594.075, 158.987 592.231, 158.992 591.902 C 158.996 591.573, 154.188 591.010, 148.308 590.650 C 142.427 590.290, 137.333 589.539, 136.988 588.980 C 136.643 588.422, 135.556 583.698, 134.574 578.482 C 133.592 573.267, 132.595 569, 132.359 569 C 132.122 569, 131.120 570.913, 130.132 573.250 M 657.496 579.023 C 656.479 584.565, 655.316 589.305, 654.912 589.554 C 654.508 589.804, 649.428 590.299, 643.623 590.654 C 637.817 591.009, 633.283 591.649, 633.547 592.076 C 633.811 592.503, 637.958 594.977, 642.764 597.574 C 647.569 600.170, 651.590 602.356, 651.700 602.431 C 651.810 602.506, 650.807 606.827, 649.470 612.033 C 648.134 617.240, 647.031 622.107, 647.020 622.849 C 647.009 623.591, 649.721 621.791, 653.047 618.849 C 664.563 608.663, 662.270 608.997, 673.330 615.894 C 678.649 619.211, 683 621.709, 683 621.444 C 683 621.180, 680.775 616.530, 678.056 611.111 L 673.112 601.259 679.656 595.879 C 683.255 592.921, 687.167 589.707, 688.350 588.738 C 690.427 587.036, 690.114 586.985, 679.076 587.238 L 667.652 587.500 664.245 579 C 662.371 574.325, 660.502 570.150, 660.091 569.722 C 659.681 569.295, 658.513 573.480, 657.496 579.023 M 214.666 640.826 C 211.968 643.643, 211.966 643.659, 213.963 645.467 C 215.313 646.688, 215.782 648.020, 215.399 649.546 C 214.930 651.415, 215.791 652.521, 220.319 655.866 C 223.338 658.096, 226.838 661.368, 228.097 663.136 C 230.811 666.948, 230.968 672.273, 228.447 675.058 C 226.725 676.962, 221.207 678.984, 217.705 678.994 C 214.595 679.004, 211 674.473, 211 670.545 C 211 667.430, 210.697 667, 208.500 667 C 206.151 667, 206 667.316, 206.002 672.250 C 206.003 678.749, 208.379 683.699, 213 686.835 C 216.311 689.082, 217.067 689.176, 227 688.587 C 232.775 688.245, 240.314 687.693, 243.752 687.362 C 250.905 686.672, 255.024 687.944, 258.034 691.770 C 261.355 695.992, 260.634 701.202, 255.576 709.533 L 251.153 716.819 256.197 718.989 C 258.971 720.183, 261.563 720.786, 261.956 720.330 C 262.350 719.873, 266.184 711.625, 270.476 702 C 274.769 692.375, 278.399 684.356, 278.544 684.180 C 278.688 684.004, 280.552 684.751, 282.685 685.839 C 292.373 690.782, 317.814 697.791, 337.750 701.010 C 343.776 701.983, 345 702.499, 345 704.068 C 345 705.887, 344.021 705.932, 318 705.317 C 291.868 704.700, 291 704.741, 290.989 706.590 C 290.983 707.640, 290.699 710.188, 290.358 712.250 C 289.762 715.857, 289.848 716.001, 292.619 716.015 C 297.988 716.042, 308.468 719.069, 316 722.766 C 321.635 725.533, 325.730 728.644, 332.471 735.280 C 340.041 742.732, 341.991 744.141, 344.957 744.306 L 348.472 744.500 351.515 725 L 354.559 705.500 363.529 706 C 368.463 706.275, 384.313 706.500, 398.751 706.500 C 418.287 706.500, 425.001 706.802, 425.001 707.683 C 425 708.333, 424.212 709.093, 423.250 709.372 C 422.288 709.650, 411.150 712.856, 398.500 716.494 C 385.850 720.133, 374.706 723.343, 373.736 723.627 C 372.121 724.100, 372.182 724.495, 374.462 728.319 L 376.952 732.494 386.726 732.162 C 402.201 731.638, 414.512 735.377, 424.798 743.724 C 428.754 746.935, 429.459 747.158, 433.650 746.530 L 438.205 745.847 437.569 735.673 C 437.219 730.078, 436.687 723.409, 436.387 720.854 C 435.844 716.236, 435.863 716.200, 439.476 715.008 C 441.475 714.348, 446.316 713.788, 450.233 713.764 C 456.426 713.725, 457.590 714.010, 459.163 715.952 C 460.487 717.588, 460.713 718.668, 460.007 719.988 C 458.950 721.963, 454.047 724, 450.351 724 C 447.588 724, 447.500 724.560, 449.513 729.378 C 451.246 733.525, 452.551 733.780, 457.945 731.028 C 463.034 728.432, 466 724.523, 466 720.412 C 466 711.735, 460.106 707.783, 446.250 707.170 C 439.765 706.884, 437 706.390, 437 705.519 C 437 704.728, 439.295 704.041, 443.309 703.630 C 446.779 703.274, 455.182 701.625, 461.982 699.964 C 468.782 698.304, 474.677 697.295, 475.083 697.723 C 475.488 698.150, 478.164 707.050, 481.029 717.500 C 483.894 727.950, 486.315 736.593, 486.409 736.707 C 486.686 737.042, 494.816 734.517, 495.427 733.906 C 495.735 733.598, 493.737 725.293, 490.986 715.450 C 488.236 705.607, 485.876 696.954, 485.743 696.219 C 485.583 695.344, 489.285 693.594, 496.500 691.134 C 509.707 686.630, 528.139 678.593, 540.640 671.886 C 547.003 668.473, 549.926 667.365, 550.263 668.242 C 550.666 669.294, 539.805 678.168, 508.895 702.043 C 506.955 703.542, 507.031 703.683, 511.505 706.897 C 515.646 709.870, 516.286 710.055, 517.807 708.720 C 520.823 706.071, 527.800 703.020, 534.729 701.319 C 541.598 699.633, 566.636 698.932, 572 700.276 C 573.619 700.681, 575.289 700.303, 576.741 699.201 L 578.981 697.500 568.538 680.060 L 558.095 662.620 561.797 660.156 C 563.834 658.801, 565.649 657.575, 565.831 657.431 C 566.222 657.124, 564.598 654.217, 562.656 651.749 C 561.375 650.121, 560.762 650.339, 553.889 654.853 C 520.283 676.928, 473.467 691.895, 420.500 697.498 C 390.342 700.688, 360.341 698.168, 325.159 689.489 C 289.099 680.594, 253.214 664.028, 225.321 643.400 C 221.305 640.430, 217.874 638, 217.697 638 C 217.519 638, 216.156 639.272, 214.666 640.826 M 235 668.894 L 235 674.788 242.828 675.144 C 252.315 675.575, 256.078 677.934, 260.891 686.462 C 262.611 689.508, 264.263 692, 264.564 692 C 265.197 692, 270.230 680.895, 269.792 680.462 C 269.251 679.925, 236.020 663, 235.507 663 C 235.228 663, 235 665.652, 235 668.894 M 546.617 684.483 L 539.734 690.870 551.117 691.185 C 557.378 691.358, 562.585 691.490, 562.689 691.478 C 563.141 691.426, 554.470 678.005, 554.011 678.048 C 553.730 678.074, 550.403 680.970, 546.617 684.483 M 546.994 704.934 C 544.040 705.833, 538 708.873, 538 709.461 C 538 709.686, 538.457 711.073, 539.017 712.544 C 539.788 714.574, 540.344 714.959, 541.324 714.146 C 542.034 713.557, 545.182 712.406, 548.319 711.589 C 555.545 709.707, 556 709.402, 556 706.441 C 556 704.336, 555.553 704.012, 552.750 704.086 C 550.962 704.133, 548.372 704.515, 546.994 704.934 M 325.500 718.842 C 327.150 719.851, 331.038 722.999, 334.140 725.838 C 337.242 728.677, 339.994 731, 340.254 731 C 340.515 731, 341.006 728.975, 341.345 726.501 C 341.684 724.026, 342.244 720.876, 342.589 719.501 L 343.217 717 332.858 717.004 L 322.500 717.007 325.500 718.842 M 415.500 721.521 L 405.500 724.630 410.939 727.369 C 413.931 728.875, 418.565 731.712, 421.236 733.674 C 423.908 735.635, 426.361 736.973, 426.686 736.647 C 427.012 736.321, 426.879 732.085, 426.389 727.233 L 425.500 718.411 415.500 721.521 M 304.607 730.582 C 303.390 733.753, 304.007 735.785, 306.367 736.377 C 307.669 736.704, 311.006 738.534, 313.783 740.445 L 318.833 743.918 319.890 740.887 C 320.832 738.183, 320.652 737.578, 318.223 735.292 C 315.520 732.748, 308.549 729.064, 306.357 729.022 C 305.728 729.010, 304.941 729.712, 304.607 730.582" stroke="none" fill="#ffffff" fill-rule="evenodd"/><path d="M 371.500 134.010 C 308.349 141.794, 254.332 167.717, 211.024 211.024 C 169.511 252.537, 143.884 304.171, 134.848 364.500 C 133.023 376.683, 133.023 423.317, 134.848 435.500 C 143.884 495.829, 169.511 547.463, 211.024 588.976 C 254.952 632.903, 311.169 659.510, 373.944 666.083 C 388.365 667.592, 426.026 666.719, 439.323 664.566 C 497.962 655.073, 548.310 629.641, 588.976 588.976 C 630.489 547.463, 656.116 495.829, 665.152 435.500 C 666.977 423.317, 666.977 376.683, 665.152 364.500 C 656.119 304.189, 630.603 252.761, 589.015 211.044 C 548.620 170.524, 498.197 145.049, 439.323 135.417 C 427.969 133.559, 382.766 132.622, 371.500 134.010 M 282.008 218.989 C 280.837 220.633, 279.794 223.220, 279.690 224.739 C 279.511 227.345, 279.776 227.528, 284.422 228 C 287.130 228.275, 289.530 229.063, 289.756 229.750 C 289.982 230.438, 289.609 231, 288.928 231 C 288.121 231, 288.300 231.674, 289.443 232.937 C 291.820 235.563, 290.656 236.981, 286.657 236.332 C 283.839 235.874, 282.955 236.265, 280.675 238.974 C 279.204 240.723, 278 242.794, 278 243.577 C 278 244.428, 276.996 245, 275.500 245 C 274.125 245, 272.100 245.900, 271 247 C 269.900 248.100, 268.550 249, 268 249 C 267.450 249, 267 249.675, 267 250.500 C 267 251.325, 267.675 252, 268.500 252 C 270.894 252, 270.247 253.688, 266.954 256.033 C 265.279 257.225, 264.030 258.944, 264.179 259.851 C 264.328 260.758, 264.110 262.042, 263.694 262.704 C 262.635 264.392, 263.844 268.549, 265.950 270.455 C 267.384 271.753, 268.269 271.848, 270.610 270.956 C 273.055 270.026, 273.654 270.131, 274.500 271.639 C 275.444 273.322, 278.805 276.742, 283.142 280.431 C 284.204 281.334, 284.823 282.477, 284.517 282.972 C 283.843 284.063, 288.597 289, 290.323 289 C 291.001 289, 292.480 289.648, 293.612 290.440 C 295.799 291.973, 303.068 292.095, 304.141 290.618 C 304.493 290.133, 305.533 290.883, 306.451 292.285 C 307.836 294.399, 307.906 295.178, 306.860 296.853 C 305.767 298.603, 305.942 299.215, 308.178 301.451 C 309.619 302.892, 311.402 303.783, 312.219 303.470 C 313.022 303.161, 314.216 303.555, 314.871 304.345 C 315.814 305.480, 315.618 306.534, 313.932 309.390 C 311.822 312.967, 308.573 314.206, 307.746 311.750 C 307.418 310.775, 306.959 310.802, 305.663 311.872 C 304.336 312.967, 303.699 312.995, 302.513 312.011 C 301.677 311.317, 299.953 311.046, 298.574 311.392 C 297.226 311.730, 295.825 311.526, 295.462 310.939 C 295.030 310.240, 294.111 310.494, 292.810 311.672 C 290.892 313.408, 290.771 313.407, 289.495 311.662 C 287.606 309.079, 282.389 309.731, 282.789 312.500 C 283.390 316.653, 283.089 320.311, 282.063 321.337 C 281.478 321.922, 281 323.258, 281 324.307 C 281 325.631, 280.519 326.029, 279.426 325.610 C 277.584 324.903, 274.447 327.540, 275.992 328.495 C 276.547 328.838, 277 329.541, 277 330.059 C 277 331.828, 274.351 331.002, 272 328.500 C 270.569 326.977, 268.547 326, 266.826 326 C 263.699 326, 263.212 327.102, 265.500 329 C 267.636 330.773, 267.363 331.911, 264.548 332.982 C 263.199 333.495, 261.402 335.256, 260.554 336.896 C 259.705 338.537, 258.086 340.527, 256.954 341.319 L 254.897 342.760 257.421 346.630 C 262.403 354.270, 264.351 356.552, 268.829 360 C 274.805 364.600, 277.723 365.900, 282.191 365.955 C 284.221 365.980, 286.160 366.450, 286.500 367 C 286.840 367.550, 289.106 368, 291.536 368 C 295.111 368, 296.258 368.464, 297.546 370.429 C 299.885 373.999, 299.115 379.278, 296.155 379.969 L 293.809 380.517 295.866 382.379 C 297.380 383.749, 297.841 385.208, 297.613 387.904 C 297.091 394.053, 295.493 396, 290.965 396 C 287.198 396, 285.827 397.157, 288 398.500 C 289.765 399.591, 289.069 400.999, 286.750 401.032 C 284.590 401.062, 284.575 401.121, 286.378 402.486 C 288.191 403.859, 288.165 404.015, 285.628 407.030 C 282.868 410.310, 282.326 412.465, 284 413.500 C 284.550 413.840, 285 413.191, 285 412.059 C 285 410.927, 285.502 410, 286.117 410 C 286.745 410, 287.002 410.884, 286.704 412.024 C 286.381 413.260, 286.627 413.949, 287.337 413.794 C 288.901 413.453, 293.702 418.394, 293.218 419.847 C 292.994 420.519, 293.910 421, 295.417 421 C 296.838 421, 298 420.550, 298 420 C 298 419.450, 298.450 419, 299 419 C 300.600 419, 300.156 421.840, 298.250 423.793 C 294.077 428.069, 293.680 428.910, 295.052 430.563 C 296.189 431.932, 296.018 432.043, 293.675 431.454 C 289.292 430.355, 290.309 432.963, 295.750 436.780 C 298.340 438.597, 299 438.749, 299 437.530 C 299 435.772, 300.566 435.488, 301.542 437.068 C 301.905 437.656, 302.734 437.932, 303.384 437.683 C 304.781 437.147, 309.567 440.767, 308.659 441.674 C 308.316 442.017, 307.034 442.797, 305.811 443.407 C 301.204 445.704, 301.481 458.345, 306.214 461.807 C 308.601 463.553, 308.467 465.559, 305.841 467.399 C 304.203 468.546, 303.947 469.231, 304.780 470.235 C 305.384 470.963, 305.839 472.943, 305.791 474.635 C 305.743 476.327, 306.003 478.196, 306.368 478.787 C 306.734 479.378, 306.546 480.163, 305.951 480.530 C 305.230 480.976, 305.434 481.822, 306.567 483.074 C 307.816 484.454, 308.105 485.945, 307.664 488.724 C 307.333 490.801, 307.458 493.135, 307.940 493.911 C 308.470 494.763, 308.372 496.032, 307.694 497.118 C 306.796 498.556, 306.987 499.373, 308.652 501.208 C 311.090 503.895, 312.336 509.264, 310.864 510.736 C 310.160 511.440, 310.256 512.451, 311.168 513.943 C 312.325 515.836, 312.261 516.299, 310.679 517.473 C 309.026 518.699, 308.992 519.087, 310.312 521.662 C 311.111 523.223, 312.098 526.950, 312.503 529.945 C 313.184 534.968, 313.352 535.239, 314.664 533.445 C 317.048 530.185, 317.476 526.821, 315.673 525.503 C 314.359 524.542, 314.208 523.477, 314.877 519.908 C 315.491 516.640, 315.900 515.953, 316.459 517.250 C 317.541 519.759, 320.375 519.541, 319.710 517 C 319.386 515.759, 319.680 515, 320.484 515 C 321.962 515, 323.044 521.556, 321.776 522.824 C 321.323 523.277, 321.863 524.471, 322.976 525.479 C 324.089 526.486, 325.018 528.478, 325.040 529.905 L 325.080 532.500 326.574 529.747 C 327.732 527.612, 327.814 526.521, 326.941 524.890 C 326.212 523.528, 326.157 522.443, 326.786 521.814 C 327.415 521.185, 328.314 522.473, 329.334 525.466 C 330.834 529.869, 330.815 530.185, 328.938 532.062 C 327.102 533.898, 327.072 534.239, 328.509 537.017 C 331.679 543.147, 335.557 539.686, 334.710 531.481 C 334.389 528.372, 334.546 526, 335.072 526 C 335.583 526, 336 526.450, 336 527 C 336 527.550, 336.482 528, 337.072 528 C 338.256 528, 337.328 517.255, 335.992 515.500 C 335.573 514.950, 335.660 513.375, 336.184 512 C 337.111 509.570, 337.178 509.555, 338.569 511.441 C 339.356 512.509, 340.018 515.434, 340.040 517.941 L 340.080 522.500 341.743 519.500 C 343.129 517.002, 343.472 516.810, 343.797 518.356 C 344.012 519.377, 343.695 520.705, 343.094 521.306 C 342.492 521.908, 342 523.159, 342 524.087 C 342 526.095, 348.081 527.386, 349.235 525.623 C 350.338 523.937, 350.178 527.402, 349.011 530.471 C 348.228 532.531, 348.346 533.196, 349.578 533.668 C 352.050 534.617, 353.373 532.570, 351.857 530.143 C 350.907 528.621, 350.850 527.750, 351.650 526.950 C 352.449 526.151, 352.935 526.841, 353.430 529.478 C 354.192 533.541, 356.734 535.227, 358.185 532.633 C 358.701 531.712, 359.545 531.219, 360.061 531.538 C 361.768 532.593, 361.036 525.493, 359.032 521.564 C 357.950 519.441, 357.353 517.238, 357.705 516.668 C 358.072 516.074, 358.646 516.457, 359.051 517.566 C 359.693 519.327, 359.871 519.253, 361.039 516.750 C 362.954 512.642, 364 513.411, 364 518.929 C 364 522.240, 364.560 524.417, 365.705 525.562 C 367.751 527.608, 368.614 526.017, 367.048 523.090 C 366.145 521.402, 366.474 520.528, 369.043 517.784 C 371.945 514.687, 372.080 514.642, 371.425 517 C 371.043 518.375, 370.258 519.803, 369.680 520.174 C 368.975 520.625, 369.080 521.392, 369.998 522.497 C 371.245 524, 371.487 523.918, 372.715 521.574 C 373.457 520.158, 374.323 519, 374.640 519 C 375.822 519, 373.878 524.122, 371.975 526.025 C 369.742 528.258, 369.426 530.527, 371.195 531.620 C 371.921 532.069, 373.196 531.235, 374.445 529.494 C 375.575 527.919, 377.981 524.951, 379.790 522.899 C 382.428 519.909, 382.960 518.606, 382.472 516.334 C 381.947 513.890, 382.045 513.718, 383.182 515.087 C 386.658 519.271, 392 520.197, 392 516.617 C 392 515.076, 392.706 514.049, 393.995 513.711 C 395.684 513.270, 395.898 513.559, 395.387 515.595 C 394.322 519.836, 397.546 518.366, 401.628 512.750 C 411.013 499.837, 411.031 499.796, 408.387 496.876 C 407.500 495.896, 406.662 493.658, 406.524 491.904 C 406.376 490.028, 405.387 488.046, 404.122 487.092 L 401.971 485.469 403.985 483.744 C 405.093 482.796, 406.007 481.228, 406.015 480.260 C 406.028 478.769, 406.175 478.728, 406.974 479.992 C 407.567 480.930, 407.561 481.839, 406.958 482.442 C 405.540 483.860, 405.796 486.016, 407.313 485.433 C 408.035 485.156, 409.498 485.893, 410.563 487.070 C 412.066 488.730, 412.503 490.700, 412.515 495.855 C 412.524 499.510, 412.919 503.113, 413.393 503.862 C 413.910 504.677, 413.831 505.487, 413.196 505.879 C 412.613 506.239, 411.013 509.629, 409.640 513.411 C 407.364 519.682, 407.276 520.492, 408.647 522.585 L 410.152 524.880 413.276 522.190 C 419.212 517.078, 422.085 513.507, 421.645 511.787 C 421.404 510.844, 421.816 509.568, 422.561 508.950 C 423.407 508.247, 423.703 506.767, 423.350 505.002 C 423.040 503.450, 423.332 500.525, 423.999 498.504 C 425.119 495.110, 425.021 494.627, 422.711 492.165 C 421.336 490.699, 419.899 488.020, 419.517 486.211 C 418.957 483.553, 418.457 483.038, 416.912 483.528 C 415.223 484.064, 415 483.611, 415 479.639 C 415 474.608, 412.874 471.588, 409.979 472.507 C 406.862 473.496, 406.913 471.387, 410.086 468.067 C 414.141 463.825, 416.122 464.397, 417.787 470.293 C 418.782 473.815, 420.018 475.649, 422.491 477.270 C 424.336 478.480, 426.565 480.686, 427.444 482.174 C 429.308 485.331, 432.520 486.643, 434.453 485.039 C 435.484 484.183, 436.611 484.402, 439.155 485.953 C 443.555 488.636, 444.979 488.532, 447.732 485.329 L 450.027 482.658 447.938 480.434 C 445.759 478.114, 446.530 476.458, 449.048 478.051 C 451.143 479.376, 452 479.210, 452 477.481 C 452 476.378, 452.656 476.126, 454.391 476.562 C 455.706 476.892, 457.070 476.695, 457.423 476.125 C 457.776 475.554, 458.725 475.341, 459.532 475.651 C 460.528 476.033, 461 475.556, 461 474.166 C 461 473.040, 461.450 471.840, 462 471.500 C 462.550 471.160, 463 470.035, 463 469 C 463 467.965, 463.520 466.797, 464.156 466.404 C 464.999 465.882, 465.097 466.611, 464.519 469.095 C 463.054 475.380, 463.621 476.813, 470.713 484.750 C 480.132 495.292, 480.844 496.498, 481.602 503.203 C 482.296 509.333, 483.963 512.127, 484.052 507.309 C 484.117 503.771, 490.915 497.963, 494.858 498.076 C 497.462 498.151, 497.455 498.169, 494.366 499.326 C 488.990 501.339, 485.532 506.003, 485.281 511.578 C 485.143 514.658, 485.643 517.333, 486.644 518.859 C 488.419 521.569, 488.968 525.302, 489.089 535.500 C 489.154 540.986, 489.663 543.260, 491.443 546.013 C 495.159 551.759, 495.374 553.596, 492.924 558.658 L 490.695 563.261 492.796 564.881 C 495.552 567.004, 497 571.065, 497 576.668 C 497 580.619, 497.566 581.836, 501.376 586.073 C 503.782 588.750, 506.681 592.866, 507.817 595.220 C 508.953 597.574, 511.059 600.850, 512.497 602.500 L 515.112 605.500 514.661 602.500 C 514.188 599.362, 509.956 588.405, 507.456 583.846 C 505.580 580.426, 505.613 578.085, 507.568 575.925 C 508.858 574.500, 508.915 573.837, 507.892 572.199 C 506.820 570.482, 507.036 569.743, 509.455 566.853 C 510.999 565.009, 513.103 563.177, 514.131 562.782 C 515.159 562.387, 516 561.375, 516 560.532 C 516 558.162, 518.781 558.724, 519.551 561.250 C 520.701 565.024, 522.821 566.757, 525.632 566.220 C 528.622 565.648, 529.962 567.206, 529.985 571.281 C 530.003 574.660, 532.345 575.798, 534.613 573.530 C 536.086 572.057, 536.123 571.388, 534.937 567.683 C 533.257 562.434, 532.655 537.693, 534.100 533.246 C 535 530.478, 534.822 529.448, 532.910 526.354 C 530.948 523.180, 530.796 522.215, 531.717 518.767 C 532.512 515.786, 532.434 513.553, 531.397 509.659 C 530.642 506.821, 530.018 502.333, 530.012 499.684 C 530.005 497.036, 529.517 493.966, 528.926 492.862 C 528.144 491.401, 528.203 489.487, 529.142 485.822 C 530.340 481.148, 530.292 480.692, 528.466 479.429 C 524.188 476.469, 523.813 475.809, 524.457 472.378 C 524.955 469.725, 524.759 469, 523.545 469 C 522.695 469, 522 468.347, 522 467.550 C 522 466.752, 521.234 465.671, 520.297 465.146 C 518.980 464.409, 518.854 463.881, 519.741 462.813 C 520.536 461.854, 520.606 460.220, 519.967 457.466 C 518.762 452.267, 518.758 446.642, 519.958 445.442 C 521.253 444.147, 519.645 433.161, 517.498 428.637 C 516.575 426.692, 516.114 424.625, 516.473 424.043 C 516.833 423.462, 516.426 422.717, 515.570 422.389 C 514.515 421.983, 514.202 421.045, 514.597 419.468 C 514.918 418.190, 514.697 416.325, 514.106 415.322 C 513.105 413.623, 512.988 413.655, 512.389 415.791 C 511.748 418.072, 511.739 418.073, 510.316 416.041 C 508.437 413.359, 506.788 413.466, 503.175 416.506 C 499.842 419.310, 497.279 418.972, 496.808 415.665 C 496.639 414.474, 496.050 413.725, 495.500 414 C 494.416 414.542, 494.421 417.921, 495.515 425.040 C 496.201 429.506, 496.146 429.627, 492.133 432.408 C 489.835 434, 487.377 434.975, 486.504 434.640 C 484.360 433.817, 480.413 437.813, 481.900 439.300 C 482.505 439.905, 483 441.815, 483 443.545 C 483 445.420, 483.808 447.421, 485 448.500 C 487.816 451.049, 487.531 452.358, 483.155 456.958 C 480.546 459.700, 478.456 461, 476.655 461 C 475.195 461, 474 461.477, 474 462.059 C 474 462.641, 473.522 462.822, 472.937 462.461 C 472.352 462.100, 471.002 462.593, 469.937 463.557 C 468.052 465.262, 468 465.204, 467.994 461.405 C 467.990 459.257, 467.299 456.180, 466.458 454.566 C 465.616 452.952, 465.167 451.007, 465.460 450.244 C 465.975 448.901, 460.268 441.055, 458.750 441.018 C 457.557 440.989, 457.881 448.837, 459.158 450.881 C 460.585 453.166, 459.589 456.163, 457.650 455.419 C 456.051 454.806, 455 450.648, 455 444.934 C 455 442.835, 454.611 440.877, 454.135 440.583 C 453.659 440.289, 453.029 438.253, 452.735 436.059 C 452.440 433.865, 451.255 430.868, 450.100 429.400 C 448.945 427.932, 448 425.721, 448 424.487 C 448 423.253, 446.988 421.532, 445.750 420.661 L 443.500 419.079 445.869 417.196 C 447.839 415.629, 448.053 414.968, 447.141 413.263 C 446.244 411.587, 446.406 410.967, 448.031 409.857 C 450.123 408.427, 450.791 404.730, 449.505 401.690 C 448.930 400.329, 449.268 399.743, 450.870 399.324 C 452.292 398.952, 453 397.974, 453 396.383 C 453 394.541, 453.539 394, 455.378 394 C 458.619 394, 460.666 391.507, 459.036 389.544 C 457.491 387.682, 458.694 385.667, 460.851 386.503 C 464.828 388.045, 471.550 388.789, 472.721 387.817 C 473.395 387.257, 474.234 385.269, 474.585 383.400 C 475.346 379.341, 476.270 379.102, 477.844 382.556 C 479.249 385.641, 481.378 384.758, 480.728 381.359 C 480.178 378.479, 481.529 377.364, 483.544 379.036 C 484.682 379.981, 485.318 379.981, 486.456 379.036 C 488.451 377.381, 489.994 378.577, 490.032 381.809 C 490.062 384.391, 490.123 384.421, 491.532 382.559 C 492.339 381.491, 493 378.626, 493 376.192 C 493 372.263, 493.224 371.825, 494.995 372.289 C 496.687 372.731, 496.898 372.442, 496.382 370.387 C 495.811 368.112, 495.938 368.026, 498.452 368.982 C 501.861 370.278, 506.700 370.295, 507.492 369.013 C 507.827 368.471, 507.666 366.449, 507.133 364.521 C 506.019 360.485, 507.299 358.905, 509.208 361.961 C 511.144 365.062, 511.532 364.466, 511.152 358.975 C 510.900 355.348, 511.307 353.191, 512.612 351.224 C 513.681 349.614, 514.491 346.392, 514.593 343.345 C 514.830 336.232, 515.547 335.441, 519.070 338.405 C 523.311 341.974, 526.071 342.624, 527.674 340.431 C 529.579 337.827, 529.308 335.050, 527.067 334.218 C 526.005 333.823, 524.059 331.925, 522.743 330 C 520.712 327.027, 519.849 326.541, 517.017 326.775 C 514.749 326.963, 512.984 326.394, 511.496 324.996 C 506.588 320.385, 502.339 319.102, 493.158 319.457 C 488.396 319.641, 482.727 320.333, 480.559 320.995 C 477.144 322.039, 476.457 321.977, 475.401 320.534 C 474.373 319.128, 473.864 319.068, 472.129 320.152 C 470.485 321.178, 469.164 321.191, 465.523 320.217 C 463.019 319.548, 459.908 319, 458.608 319 C 457.308 319, 455.737 318.388, 455.116 317.639 C 453.530 315.729, 440.230 315.681, 437.285 317.575 C 434.325 319.479, 428.082 319.384, 425.892 317.402 C 424.921 316.523, 423.613 316.121, 422.986 316.509 C 420.728 317.904, 399.673 317.832, 397.520 316.421 C 396.404 315.690, 392.635 314.425, 389.146 313.611 C 385.657 312.797, 382.060 311.472, 381.151 310.665 C 378.425 308.245, 371.677 305.864, 369.262 306.470 C 367.254 306.974, 367.004 306.671, 367.032 303.769 C 367.049 301.971, 367.724 299.626, 368.532 298.559 C 370.193 296.362, 370.615 283.498, 369.057 282.535 C 367.673 281.680, 368.445 266.374, 369.964 264.543 C 371.005 263.289, 371.005 262.711, 369.962 261.454 C 369.257 260.604, 368.037 260.156, 367.251 260.457 C 366.106 260.897, 365.950 260.258, 366.462 257.228 C 366.996 254.066, 366.643 252.849, 364.300 249.761 C 362.760 247.733, 361.102 246.056, 360.615 246.036 C 359.519 245.991, 355 250.778, 355 251.984 C 355 252.469, 355.900 253.151, 357 253.500 C 359.891 254.418, 359.522 257, 356.500 257 C 354.491 257, 354 257.498, 354 259.535 C 354 261.690, 353.723 261.922, 352.153 261.082 C 350.934 260.429, 349.968 260.432, 349.311 261.089 C 348.650 261.750, 347.885 261.566, 347.035 260.542 C 346.331 259.694, 344.462 259, 342.880 259 C 341.020 259, 338.681 257.806, 336.253 255.617 C 334.189 253.757, 331.600 252.065, 330.500 251.859 C 329.037 251.584, 328.412 250.545, 328.172 247.992 C 327.991 246.071, 327.306 243.825, 326.649 243 C 325.991 242.175, 325.464 239.813, 325.477 237.750 C 325.498 234.363, 325.246 234.001, 322.872 234 C 321.427 234, 319.680 233.319, 318.990 232.488 C 318.065 231.374, 317.390 231.261, 316.427 232.061 C 314.579 233.594, 315.651 235.621, 319.599 238.061 C 321.470 239.217, 323 240.576, 323 241.082 C 323 242.429, 319.615 242.201, 318.064 240.750 C 316.969 239.725, 316.826 239.906, 317.270 241.750 C 317.682 243.459, 317.374 244, 315.990 244 C 314.987 244, 313.904 243.438, 313.583 242.750 C 313.117 241.750, 312.883 241.750, 312.417 242.750 C 312.096 243.438, 311.314 244, 310.678 244 C 309.124 244, 301.271 235.234, 299.752 231.803 C 299.011 230.128, 297.486 228.826, 295.841 228.465 C 291.895 227.598, 286 221.669, 286 218.567 C 286 215.176, 284.619 215.322, 282.008 218.989 M 80.075 477.864 L 75.684 488.229 71.592 487.668 C 69.341 487.359, 64.365 486.786, 60.534 486.393 L 53.569 485.680 61.534 492.531 C 65.915 496.300, 69.686 499.520, 69.912 499.687 C 70.139 499.855, 69.845 501.006, 69.259 502.246 C 68.672 503.486, 66.578 508.004, 64.604 512.287 L 61.016 520.075 65.758 517.343 C 68.366 515.841, 72.075 513.655, 74 512.485 C 75.925 511.316, 78.060 510.029, 78.744 509.624 C 79.529 509.161, 82.778 511.531, 87.554 516.051 C 91.716 519.990, 95.310 523.024, 95.541 522.793 C 95.772 522.561, 94.881 517.903, 93.560 512.440 C 92.239 506.977, 91.358 502.308, 91.602 502.064 C 91.846 501.821, 96.379 499.285, 101.674 496.431 L 111.303 491.241 99.922 490.370 L 88.540 489.500 86.503 478.500 L 84.466 467.500 80.075 477.864 M 705.486 478.786 L 703.500 489.500 692.500 490.500 L 681.500 491.500 691.259 496.790 C 700.517 501.808, 700.986 502.219, 700.402 504.790 C 700.063 506.280, 698.934 510.950, 697.893 515.167 C 696.852 519.383, 696 523.142, 696 523.520 C 696 523.898, 699.635 520.789, 704.077 516.610 C 710.420 510.643, 712.514 509.205, 713.833 509.911 C 714.756 510.405, 718.979 512.859, 723.216 515.364 C 732.003 520.559, 731.937 520.781, 725.448 507.897 L 721.772 500.597 725.147 497.549 C 727.004 495.872, 730.768 492.527, 733.511 490.115 L 738.500 485.730 732 486.403 C 728.425 486.774, 723.446 487.331, 720.936 487.643 L 716.371 488.208 712.546 478.854 C 710.443 473.709, 708.440 469.179, 708.096 468.786 C 707.753 468.393, 706.578 472.893, 705.486 478.786 M 455.681 496.045 C 453.632 498.970, 453.517 501.601, 455.406 502.325 C 456.179 502.622, 457.109 504.220, 457.473 505.875 C 458.043 508.470, 458.435 508.772, 460.317 508.063 C 462.070 507.402, 462.438 506.576, 462.183 503.870 C 462.008 502.016, 461.325 500.050, 460.664 499.500 C 460.003 498.950, 458.989 497.408, 458.412 496.072 L 457.362 493.645 455.681 496.045 M 431.975 503.565 C 431.439 504.976, 431 508.340, 431 511.041 C 431 514.188, 430.283 517.127, 429.004 519.226 C 425.078 525.664, 427.387 526.997, 433.377 521.750 C 437.464 518.170, 439.104 512.596, 437.218 508.695 C 436.633 507.488, 435.887 505.262, 435.559 503.750 C 434.810 500.300, 433.247 500.219, 431.975 503.565 M 131.082 571.500 C 130.435 573.150, 128.665 577.650, 127.149 581.500 C 125.379 585.996, 123.859 588.462, 122.899 588.395 C 122.077 588.337, 117.151 587.995, 111.952 587.636 L 102.500 586.982 107.449 591.241 C 110.171 593.584, 113.862 596.850, 115.651 598.500 L 118.905 601.500 114.445 610.910 C 111.993 616.085, 110.114 620.447, 110.270 620.603 C 110.426 620.759, 114.518 618.413, 119.364 615.389 C 124.210 612.365, 128.566 610.028, 129.045 610.196 C 129.524 610.363, 133.109 613.363, 137.012 616.862 C 140.915 620.361, 144.274 623.060, 144.475 622.858 C 144.676 622.657, 143.761 618.023, 142.440 612.560 C 141.119 607.097, 140.143 602.540, 140.269 602.432 C 140.396 602.324, 144.438 600.116, 149.252 597.526 C 154.066 594.936, 157.752 592.408, 157.443 591.908 C 157.135 591.409, 153.646 590.947, 149.691 590.882 C 136.375 590.663, 136.885 591.060, 134.412 578.996 C 132.368 569.028, 132.200 568.651, 131.082 571.500 M 657.521 579.884 L 655.708 589.768 651.214 590.384 C 648.743 590.723, 644.110 591, 640.919 591 C 637.729 591, 634.896 591.360, 634.624 591.800 C 634.352 592.240, 637.588 594.506, 641.815 596.836 C 646.042 599.166, 650.088 601.436, 650.807 601.880 C 651.856 602.529, 651.609 604.682, 649.557 612.775 C 648.151 618.323, 647 623.166, 647 623.537 C 647 623.908, 650.547 621.014, 654.882 617.106 C 659.218 613.198, 663.155 610.009, 663.632 610.020 C 664.110 610.031, 668.315 612.478, 672.979 615.458 C 677.642 618.438, 681.606 620.728, 681.787 620.546 C 681.968 620.365, 680.108 615.919, 677.654 610.667 L 673.191 601.117 681.817 593.966 L 690.442 586.815 681.471 587.534 C 676.537 587.930, 671.439 588.309, 670.142 588.377 C 668.067 588.485, 667.348 587.392, 664.142 579.252 C 662.139 574.166, 660.238 570.004, 659.917 570.002 C 659.597 570.001, 658.519 574.448, 657.521 579.884" stroke="none" fill="#ed1c22" fill-rule="evenodd"/><path d="M 396.750 132.723 C 398.538 132.945, 401.462 132.945, 403.250 132.723 C 405.038 132.502, 403.575 132.320, 400 132.320 C 396.425 132.320, 394.962 132.502, 396.750 132.723 M 282.008 218.989 C 280.837 220.633, 279.794 223.220, 279.690 224.739 C 279.511 227.345, 279.776 227.528, 284.422 228 C 287.130 228.275, 289.530 229.063, 289.756 229.750 C 289.982 230.438, 289.609 231, 288.928 231 C 288.121 231, 288.300 231.674, 289.443 232.937 C 291.820 235.563, 290.656 236.981, 286.657 236.332 C 283.839 235.874, 282.955 236.265, 280.675 238.974 C 279.204 240.723, 278 242.794, 278 243.577 C 278 244.428, 276.996 245, 275.500 245 C 274.125 245, 272.100 245.900, 271 247 C 269.900 248.100, 268.550 249, 268 249 C 267.450 249, 267 249.675, 267 250.500 C 267 251.325, 267.675 252, 268.500 252 C 270.894 252, 270.247 253.688, 266.954 256.033 C 265.279 257.225, 264.030 258.944, 264.179 259.851 C 264.328 260.758, 264.110 262.042, 263.694 262.704 C 262.635 264.392, 263.844 268.549, 265.950 270.455 C 267.384 271.753, 268.269 271.848, 270.610 270.956 C 273.055 270.026, 273.654 270.131, 274.500 271.639 C 275.444 273.322, 278.805 276.742, 283.142 280.431 C 284.204 281.334, 284.823 282.477, 284.517 282.972 C 283.843 284.063, 288.597 289, 290.323 289 C 291.001 289, 292.480 289.648, 293.612 290.440 C 295.799 291.973, 303.068 292.095, 304.141 290.618 C 304.493 290.133, 305.533 290.883, 306.451 292.285 C 307.836 294.399, 307.906 295.178, 306.860 296.853 C 305.767 298.603, 305.942 299.215, 308.178 301.451 C 309.619 302.892, 311.402 303.783, 312.219 303.470 C 313.022 303.161, 314.216 303.555, 314.871 304.345 C 315.814 305.480, 315.618 306.534, 313.932 309.390 C 311.822 312.967, 308.573 314.206, 307.746 311.750 C 307.418 310.775, 306.959 310.802, 305.663 311.872 C 304.336 312.967, 303.699 312.995, 302.513 312.011 C 301.677 311.317, 299.953 311.046, 298.574 311.392 C 297.226 311.730, 295.825 311.526, 295.462 310.939 C 295.030 310.240, 294.111 310.494, 292.810 311.672 C 290.892 313.408, 290.771 313.407, 289.495 311.662 C 287.606 309.079, 282.389 309.731, 282.789 312.500 C 283.390 316.653, 283.089 320.311, 282.063 321.337 C 281.478 321.922, 281 323.258, 281 324.307 C 281 325.631, 280.519 326.029, 279.426 325.610 C 277.584 324.903, 274.447 327.540, 275.992 328.495 C 276.547 328.838, 277 329.541, 277 330.059 C 277 331.828, 274.351 331.002, 272 328.500 C 270.569 326.977, 268.547 326, 266.826 326 C 263.699 326, 263.212 327.102, 265.500 329 C 267.636 330.773, 267.363 331.911, 264.548 332.982 C 263.199 333.495, 261.402 335.256, 260.554 336.896 C 259.705 338.537, 258.086 340.527, 256.954 341.319 L 254.897 342.760 257.421 346.630 C 262.403 354.270, 264.351 356.552, 268.829 360 C 274.805 364.600, 277.723 365.900, 282.191 365.955 C 284.221 365.980, 286.160 366.450, 286.500 367 C 286.840 367.550, 289.106 368, 291.536 368 C 295.111 368, 296.258 368.464, 297.546 370.429 C 299.885 373.999, 299.115 379.278, 296.155 379.969 L 293.809 380.517 295.866 382.379 C 297.380 383.749, 297.841 385.208, 297.613 387.904 C 297.091 394.053, 295.493 396, 290.965 396 C 287.198 396, 285.827 397.157, 288 398.500 C 289.765 399.591, 289.069 400.999, 286.750 401.032 C 284.590 401.062, 284.575 401.121, 286.378 402.486 C 288.191 403.859, 288.165 404.015, 285.628 407.030 C 282.868 410.310, 282.326 412.465, 284 413.500 C 284.550 413.840, 285 413.191, 285 412.059 C 285 410.927, 285.502 410, 286.117 410 C 286.745 410, 287.002 410.884, 286.704 412.024 C 286.381 413.260, 286.627 413.949, 287.337 413.794 C 288.901 413.453, 293.702 418.394, 293.218 419.847 C 292.994 420.519, 293.910 421, 295.417 421 C 296.838 421, 298 420.550, 298 420 C 298 419.450, 298.450 419, 299 419 C 300.600 419, 300.156 421.840, 298.250 423.793 C 294.077 428.069, 293.680 428.910, 295.052 430.563 C 296.189 431.932, 296.018 432.043, 293.675 431.454 C 289.292 430.355, 290.309 432.963, 295.750 436.780 C 298.340 438.597, 299 438.749, 299 437.530 C 299 435.772, 300.566 435.488, 301.542 437.068 C 301.905 437.656, 302.734 437.932, 303.384 437.683 C 304.781 437.147, 309.567 440.767, 308.659 441.674 C 308.316 442.017, 307.034 442.797, 305.811 443.407 C 301.204 445.704, 301.481 458.345, 306.214 461.807 C 308.601 463.553, 308.467 465.559, 305.841 467.399 C 304.203 468.546, 303.947 469.231, 304.780 470.235 C 305.384 470.963, 305.839 472.943, 305.791 474.635 C 305.743 476.327, 306.003 478.196, 306.368 478.787 C 306.734 479.378, 306.546 480.163, 305.951 480.530 C 305.230 480.976, 305.434 481.822, 306.567 483.074 C 307.816 484.454, 308.105 485.945, 307.664 488.724 C 307.333 490.801, 307.458 493.135, 307.940 493.911 C 308.470 494.763, 308.372 496.032, 307.694 497.118 C 306.796 498.556, 306.987 499.373, 308.652 501.208 C 311.090 503.895, 312.336 509.264, 310.864 510.736 C 310.160 511.440, 310.256 512.451, 311.168 513.943 C 312.325 515.836, 312.261 516.299, 310.679 517.473 C 309.026 518.699, 308.992 519.087, 310.312 521.662 C 311.111 523.223, 312.098 526.950, 312.503 529.945 C 313.184 534.968, 313.352 535.239, 314.664 533.445 C 317.048 530.185, 317.476 526.821, 315.673 525.503 C 314.359 524.542, 314.208 523.477, 314.877 519.908 C 315.491 516.640, 315.900 515.953, 316.459 517.250 C 317.541 519.759, 320.375 519.541, 319.710 517 C 319.386 515.759, 319.680 515, 320.484 515 C 321.962 515, 323.044 521.556, 321.776 522.824 C 321.323 523.277, 321.863 524.471, 322.976 525.479 C 324.089 526.486, 325.018 528.478, 325.040 529.905 L 325.080 532.500 326.574 529.747 C 327.732 527.612, 327.814 526.521, 326.941 524.890 C 326.212 523.528, 326.157 522.443, 326.786 521.814 C 327.415 521.185, 328.314 522.473, 329.334 525.466 C 330.834 529.869, 330.815 530.185, 328.938 532.062 C 327.102 533.898, 327.072 534.239, 328.509 537.017 C 331.679 543.147, 335.557 539.686, 334.710 531.481 C 334.389 528.372, 334.546 526, 335.072 526 C 335.583 526, 336 526.450, 336 527 C 336 527.550, 336.482 528, 337.072 528 C 338.256 528, 337.328 517.255, 335.992 515.500 C 335.573 514.950, 335.660 513.375, 336.184 512 C 337.111 509.570, 337.178 509.555, 338.569 511.441 C 339.356 512.509, 340.018 515.434, 340.040 517.941 L 340.080 522.500 341.743 519.500 C 343.129 517.002, 343.472 516.810, 343.797 518.356 C 344.012 519.377, 343.695 520.705, 343.094 521.306 C 342.492 521.908, 342 523.159, 342 524.087 C 342 526.095, 348.081 527.386, 349.235 525.623 C 350.338 523.937, 350.178 527.402, 349.011 530.471 C 348.228 532.531, 348.346 533.196, 349.578 533.668 C 352.050 534.617, 353.373 532.570, 351.857 530.143 C 350.907 528.621, 350.850 527.750, 351.650 526.950 C 352.449 526.151, 352.935 526.841, 353.430 529.478 C 354.192 533.541, 356.734 535.227, 358.185 532.633 C 358.701 531.712, 359.545 531.219, 360.061 531.538 C 361.768 532.593, 361.036 525.493, 359.032 521.564 C 357.950 519.441, 357.353 517.238, 357.705 516.668 C 358.072 516.074, 358.646 516.457, 359.051 517.566 C 359.693 519.327, 359.871 519.253, 361.039 516.750 C 362.954 512.642, 364 513.411, 364 518.929 C 364 522.240, 364.560 524.417, 365.705 525.562 C 367.751 527.608, 368.614 526.017, 367.048 523.090 C 366.145 521.402, 366.474 520.528, 369.043 517.784 C 371.945 514.687, 372.080 514.642, 371.425 517 C 371.043 518.375, 370.258 519.803, 369.680 520.174 C 368.975 520.625, 369.080 521.392, 369.998 522.497 C 371.245 524, 371.487 523.918, 372.715 521.574 C 373.457 520.158, 374.323 519, 374.640 519 C 375.822 519, 373.878 524.122, 371.975 526.025 C 369.742 528.258, 369.426 530.527, 371.195 531.620 C 371.921 532.069, 373.196 531.235, 374.445 529.494 C 375.575 527.919, 377.981 524.951, 379.790 522.899 C 382.428 519.909, 382.960 518.606, 382.472 516.334 C 381.947 513.890, 382.045 513.718, 383.182 515.087 C 386.658 519.271, 392 520.197, 392 516.617 C 392 515.076, 392.706 514.049, 393.995 513.711 C 395.684 513.270, 395.898 513.559, 395.387 515.595 C 394.322 519.836, 397.546 518.366, 401.628 512.750 C 411.013 499.837, 411.031 499.796, 408.387 496.876 C 407.500 495.896, 406.662 493.658, 406.524 491.904 C 406.376 490.028, 405.387 488.046, 404.122 487.092 L 401.971 485.469 403.985 483.744 C 405.093 482.796, 406.007 481.228, 406.015 480.260 C 406.028 478.769, 406.175 478.728, 406.974 479.992 C 407.567 480.930, 407.561 481.839, 406.958 482.442 C 405.540 483.860, 405.796 486.016, 407.313 485.433 C 408.035 485.156, 409.498 485.893, 410.563 487.070 C 412.066 488.730, 412.503 490.700, 412.515 495.855 C 412.524 499.510, 412.919 503.113, 413.393 503.862 C 413.910 504.677, 413.831 505.487, 413.196 505.879 C 412.613 506.239, 411.013 509.629, 409.640 513.411 C 407.364 519.682, 407.276 520.492, 408.647 522.585 L 410.152 524.880 413.276 522.190 C 419.212 517.078, 422.085 513.507, 421.645 511.787 C 421.404 510.844, 421.816 509.568, 422.561 508.950 C 423.407 508.247, 423.703 506.767, 423.350 505.002 C 423.040 503.450, 423.332 500.525, 423.999 498.504 C 425.119 495.110, 425.021 494.627, 422.711 492.165 C 421.336 490.699, 419.899 488.020, 419.517 486.211 C 418.957 483.553, 418.457 483.038, 416.912 483.528 C 415.223 484.064, 415 483.611, 415 479.639 C 415 474.608, 412.874 471.588, 409.979 472.507 C 406.862 473.496, 406.913 471.387, 410.086 468.067 C 414.141 463.825, 416.122 464.397, 417.787 470.293 C 418.782 473.815, 420.018 475.649, 422.491 477.270 C 424.336 478.480, 426.565 480.686, 427.444 482.174 C 429.308 485.331, 432.520 486.643, 434.453 485.039 C 435.484 484.183, 436.611 484.402, 439.155 485.953 C 443.555 488.636, 444.979 488.532, 447.732 485.329 L 450.027 482.658 447.938 480.434 C 445.759 478.114, 446.530 476.458, 449.048 478.051 C 451.143 479.376, 452 479.210, 452 477.481 C 452 476.378, 452.656 476.126, 454.391 476.562 C 455.706 476.892, 457.070 476.695, 457.423 476.125 C 457.776 475.554, 458.725 475.341, 459.532 475.651 C 460.528 476.033, 461 475.556, 461 474.166 C 461 473.040, 461.450 471.840, 462 471.500 C 462.550 471.160, 463 470.035, 463 469 C 463 467.965, 463.520 466.797, 464.156 466.404 C 464.999 465.882, 465.097 466.611, 464.519 469.095 C 463.054 475.380, 463.621 476.813, 470.713 484.750 C 480.132 495.292, 480.844 496.498, 481.602 503.203 C 482.296 509.333, 483.963 512.127, 484.052 507.309 C 484.117 503.771, 490.915 497.963, 494.858 498.076 C 497.462 498.151, 497.455 498.169, 494.366 499.326 C 488.990 501.339, 485.532 506.003, 485.281 511.578 C 485.143 514.658, 485.643 517.333, 486.644 518.859 C 488.419 521.569, 488.968 525.302, 489.089 535.500 C 489.154 540.986, 489.663 543.260, 491.443 546.013 C 495.159 551.759, 495.374 553.596, 492.924 558.658 L 490.695 563.261 492.796 564.881 C 495.552 567.004, 497 571.065, 497 576.668 C 497 580.619, 497.566 581.836, 501.376 586.073 C 503.782 588.750, 506.681 592.866, 507.817 595.220 C 508.953 597.574, 511.059 600.850, 512.497 602.500 L 515.112 605.500 514.661 602.500 C 514.188 599.362, 509.956 588.405, 507.456 583.846 C 505.580 580.426, 505.613 578.085, 507.568 575.925 C 508.858 574.500, 508.915 573.837, 507.892 572.199 C 506.820 570.482, 507.036 569.743, 509.455 566.853 C 510.999 565.009, 513.103 563.177, 514.131 562.782 C 515.159 562.387, 516 561.375, 516 560.532 C 516 558.162, 518.781 558.724, 519.551 561.250 C 520.701 565.024, 522.821 566.757, 525.632 566.220 C 528.622 565.648, 529.962 567.206, 529.985 571.281 C 530.003 574.660, 532.345 575.798, 534.613 573.530 C 536.086 572.057, 536.123 571.388, 534.937 567.683 C 533.257 562.434, 532.655 537.693, 534.100 533.246 C 535 530.478, 534.822 529.448, 532.910 526.354 C 530.948 523.180, 530.796 522.215, 531.717 518.767 C 532.512 515.786, 532.434 513.553, 531.397 509.659 C 530.642 506.821, 530.018 502.333, 530.012 499.684 C 530.005 497.036, 529.517 493.966, 528.926 492.862 C 528.144 491.401, 528.203 489.487, 529.142 485.822 C 530.340 481.148, 530.292 480.692, 528.466 479.429 C 524.188 476.469, 523.813 475.809, 524.457 472.378 C 524.955 469.725, 524.759 469, 523.545 469 C 522.695 469, 522 468.347, 522 467.550 C 522 466.752, 521.234 465.671, 520.297 465.146 C 518.980 464.409, 518.854 463.881, 519.741 462.813 C 520.536 461.854, 520.606 460.220, 519.967 457.466 C 518.762 452.267, 518.758 446.642, 519.958 445.442 C 521.253 444.147, 519.645 433.161, 517.498 428.637 C 516.575 426.692, 516.114 424.625, 516.473 424.043 C 516.833 423.462, 516.426 422.717, 515.570 422.389 C 514.515 421.983, 514.202 421.045, 514.597 419.468 C 514.918 418.190, 514.697 416.325, 514.106 415.322 C 513.105 413.623, 512.988 413.655, 512.389 415.791 C 511.748 418.072, 511.739 418.073, 510.316 416.041 C 508.437 413.359, 506.788 413.466, 503.175 416.506 C 499.842 419.310, 497.279 418.972, 496.808 415.665 C 496.639 414.474, 496.050 413.725, 495.500 414 C 494.416 414.542, 494.421 417.921, 495.515 425.040 C 496.201 429.506, 496.146 429.627, 492.133 432.408 C 489.835 434, 487.377 434.975, 486.504 434.640 C 484.360 433.817, 480.413 437.813, 481.900 439.300 C 482.505 439.905, 483 441.815, 483 443.545 C 483 445.420, 483.808 447.421, 485 448.500 C 487.816 451.049, 487.531 452.358, 483.155 456.958 C 480.546 459.700, 478.456 461, 476.655 461 C 475.195 461, 474 461.477, 474 462.059 C 474 462.641, 473.522 462.822, 472.937 462.461 C 472.352 462.100, 471.002 462.593, 469.937 463.557 C 468.052 465.262, 468 465.204, 467.994 461.405 C 467.990 459.257, 467.299 456.180, 466.458 454.566 C 465.616 452.952, 465.167 451.007, 465.460 450.244 C 465.975 448.901, 460.268 441.055, 458.750 441.018 C 457.557 440.989, 457.881 448.837, 459.158 450.881 C 460.585 453.166, 459.589 456.163, 457.650 455.419 C 456.051 454.806, 455 450.648, 455 444.934 C 455 442.835, 454.611 440.877, 454.135 440.583 C 453.659 440.289, 453.029 438.253, 452.735 436.059 C 452.440 433.865, 451.255 430.868, 450.100 429.400 C 448.945 427.932, 448 425.721, 448 424.487 C 448 423.253, 446.988 421.532, 445.750 420.661 L 443.500 419.079 445.869 417.196 C 447.839 415.629, 448.053 414.968, 447.141 413.263 C 446.244 411.587, 446.406 410.967, 448.031 409.857 C 450.123 408.427, 450.791 404.730, 449.505 401.690 C 448.930 400.329, 449.268 399.743, 450.870 399.324 C 452.292 398.952, 453 397.974, 453 396.383 C 453 394.541, 453.539 394, 455.378 394 C 458.619 394, 460.666 391.507, 459.036 389.544 C 457.491 387.682, 458.694 385.667, 460.851 386.503 C 464.828 388.045, 471.550 388.789, 472.721 387.817 C 473.395 387.257, 474.234 385.269, 474.585 383.400 C 475.346 379.341, 476.270 379.102, 477.844 382.556 C 479.249 385.641, 481.378 384.758, 480.728 381.359 C 480.178 378.479, 481.529 377.364, 483.544 379.036 C 484.682 379.981, 485.318 379.981, 486.456 379.036 C 488.451 377.381, 489.994 378.577, 490.032 381.809 C 490.062 384.391, 490.123 384.421, 491.532 382.559 C 492.339 381.491, 493 378.626, 493 376.192 C 493 372.263, 493.224 371.825, 494.995 372.289 C 496.687 372.731, 496.898 372.442, 496.382 370.387 C 495.811 368.112, 495.938 368.026, 498.452 368.982 C 501.861 370.278, 506.700 370.295, 507.492 369.013 C 507.827 368.471, 507.666 366.449, 507.133 364.521 C 506.019 360.485, 507.299 358.905, 509.208 361.961 C 511.144 365.062, 511.532 364.466, 511.152 358.975 C 510.900 355.348, 511.307 353.191, 512.612 351.224 C 513.681 349.614, 514.491 346.392, 514.593 343.345 C 514.830 336.232, 515.547 335.441, 519.070 338.405 C 523.311 341.974, 526.071 342.624, 527.674 340.431 C 529.579 337.827, 529.308 335.050, 527.067 334.218 C 526.005 333.823, 524.059 331.925, 522.743 330 C 520.712 327.027, 519.849 326.541, 517.017 326.775 C 514.749 326.963, 512.984 326.394, 511.496 324.996 C 506.588 320.385, 502.339 319.102, 493.158 319.457 C 488.396 319.641, 482.727 320.333, 480.559 320.995 C 477.144 322.039, 476.457 321.977, 475.401 320.534 C 474.373 319.128, 473.864 319.068, 472.129 320.152 C 470.485 321.178, 469.164 321.191, 465.523 320.217 C 463.019 319.548, 459.908 319, 458.608 319 C 457.308 319, 455.737 318.388, 455.116 317.639 C 453.530 315.729, 440.230 315.681, 437.285 317.575 C 434.325 319.479, 428.082 319.384, 425.892 317.402 C 424.921 316.523, 423.613 316.121, 422.986 316.509 C 420.728 317.904, 399.673 317.832, 397.520 316.421 C 396.404 315.690, 392.635 314.425, 389.146 313.611 C 385.657 312.797, 382.060 311.472, 381.151 310.665 C 378.425 308.245, 371.677 305.864, 369.262 306.470 C 367.254 306.974, 367.004 306.671, 367.032 303.769 C 367.049 301.971, 367.724 299.626, 368.532 298.559 C 370.193 296.362, 370.615 283.498, 369.057 282.535 C 367.673 281.680, 368.445 266.374, 369.964 264.543 C 371.005 263.289, 371.005 262.711, 369.962 261.454 C 369.257 260.604, 368.037 260.156, 367.251 260.457 C 366.106 260.897, 365.950 260.258, 366.462 257.228 C 366.996 254.066, 366.643 252.849, 364.300 249.761 C 362.760 247.733, 361.102 246.056, 360.615 246.036 C 359.519 245.991, 355 250.778, 355 251.984 C 355 252.469, 355.900 253.151, 357 253.500 C 359.891 254.418, 359.522 257, 356.500 257 C 354.491 257, 354 257.498, 354 259.535 C 354 261.690, 353.723 261.922, 352.153 261.082 C 350.934 260.429, 349.968 260.432, 349.311 261.089 C 348.650 261.750, 347.885 261.566, 347.035 260.542 C 346.331 259.694, 344.462 259, 342.880 259 C 341.020 259, 338.681 257.806, 336.253 255.617 C 334.189 253.757, 331.600 252.065, 330.500 251.859 C 329.037 251.584, 328.412 250.545, 328.172 247.992 C 327.991 246.071, 327.306 243.825, 326.649 243 C 325.991 242.175, 325.464 239.813, 325.477 237.750 C 325.498 234.363, 325.246 234.001, 322.872 234 C 321.427 234, 319.680 233.319, 318.990 232.488 C 318.065 231.374, 317.390 231.261, 316.427 232.061 C 314.579 233.594, 315.651 235.621, 319.599 238.061 C 321.470 239.217, 323 240.576, 323 241.082 C 323 242.429, 319.615 242.201, 318.064 240.750 C 316.969 239.725, 316.826 239.906, 317.270 241.750 C 317.682 243.459, 317.374 244, 315.990 244 C 314.987 244, 313.904 243.438, 313.583 242.750 C 313.117 241.750, 312.883 241.750, 312.417 242.750 C 312.096 243.438, 311.314 244, 310.678 244 C 309.124 244, 301.271 235.234, 299.752 231.803 C 299.011 230.128, 297.486 228.826, 295.841 228.465 C 291.895 227.598, 286 221.669, 286 218.567 C 286 215.176, 284.619 215.322, 282.008 218.989 M 132.300 400 C 132.300 403.025, 132.487 404.262, 132.716 402.750 C 132.945 401.238, 132.945 398.762, 132.716 397.250 C 132.487 395.738, 132.300 396.975, 132.300 400 M 455.681 496.045 C 453.632 498.970, 453.517 501.601, 455.406 502.325 C 456.179 502.622, 457.109 504.220, 457.473 505.875 C 458.043 508.470, 458.435 508.772, 460.317 508.063 C 462.070 507.402, 462.438 506.576, 462.183 503.870 C 462.008 502.016, 461.325 500.050, 460.664 499.500 C 460.003 498.950, 458.989 497.408, 458.412 496.072 L 457.362 493.645 455.681 496.045 M 431.975 503.565 C 431.439 504.976, 431 508.340, 431 511.041 C 431 514.188, 430.283 517.127, 429.004 519.226 C 425.078 525.664, 427.387 526.997, 433.377 521.750 C 437.464 518.170, 439.104 512.596, 437.218 508.695 C 436.633 507.488, 435.887 505.262, 435.559 503.750 C 434.810 500.300, 433.247 500.219, 431.975 503.565 M 397.250 667.716 C 398.762 667.945, 401.238 667.945, 402.750 667.716 C 404.262 667.487, 403.025 667.300, 400 667.300 C 396.975 667.300, 395.738 667.487, 397.250 667.716" stroke="none" fill="#fcef1e" fill-rule="evenodd"/><path d="M 369.500 0.625 C 309.719 6.684, 267.036 18.719, 219 43.058 C 108.032 99.286, 30.212 202.786, 6.636 325.500 C 1.456 352.461, 0.504 364.027, 0.504 400 C 0.504 426.572, 0.880 436.395, 2.322 447.500 C 8.598 495.862, 20.644 535.837, 41.645 578 C 61.892 618.649, 85.413 651.428, 116.992 683.008 C 180.566 746.581, 261.223 785.855, 352.500 797.682 C 372.573 800.282, 427.451 800.281, 447.500 797.678 C 538.951 785.809, 619.356 746.660, 683.008 683.008 C 745.782 620.233, 785.710 539.064, 797.030 451.212 C 798.114 442.803, 799 433.691, 799 430.962 C 799 428.233, 799.450 426, 800 426 C 800.642 426, 801 416.314, 801 398.941 C 801 381.156, 800.657 372.094, 800 372.500 C 799.390 372.877, 799 371.356, 799 368.597 C 799 356.999, 793.339 322.133, 788.006 300.880 C 776.654 255.646, 753.803 206.526, 726 167.595 C 666.495 84.275, 577.947 27.176, 477 7.030 C 452.504 2.141, 437.997 0.829, 405 0.517 C 387.675 0.353, 371.700 0.402, 369.500 0.625 M 381 9.076 C 307.881 12.403, 234.314 37.525, 175.541 79.236 C 146.889 99.570, 115.098 129.336, 94.673 154.954 C 42.205 220.758, 12.209 300.490, 9.162 382.250 C 6.583 451.422, 19.307 512.847, 48.569 572.500 C 100.935 679.252, 199.674 756.746, 316 782.388 C 360.102 792.110, 410.782 793.923, 456.500 787.414 C 510.139 779.777, 562.865 760.250, 609.500 730.749 C 634.602 714.870, 653.858 699.277, 677.033 676.063 C 739.393 613.597, 776.556 537.680, 788.676 448 C 791.306 428.534, 791.306 371.466, 788.676 352 C 778.455 276.369, 751.563 213.227, 704.137 153.500 C 691.502 137.589, 661.795 108.004, 645 94.607 C 595.708 55.288, 539.054 28.717, 478.560 16.545 C 457.500 12.307, 440.795 10.156, 423.649 9.475 C 416.417 9.188, 407.575 8.811, 404 8.639 C 400.425 8.466, 390.075 8.663, 381 9.076 M 394.438 38.463 C 382.647 40.605, 382.751 40.540, 383.530 45.340 C 383.902 47.628, 384.497 49.807, 384.853 50.182 C 385.209 50.557, 389.325 49.735, 394 48.355 C 405.510 44.957, 417.817 44.680, 423.500 47.691 C 427.840 49.990, 431 54.413, 431 58.188 L 431 60.568 421.250 59.711 C 408.008 58.547, 371.306 59.540, 356 61.477 C 279.980 71.096, 211.791 102.760, 160.275 152.361 L 150.034 162.221 154.005 166.861 L 157.977 171.500 150.591 172.194 C 137.425 173.430, 130.013 178.165, 124.860 188.632 C 121.983 194.476, 121.643 196.103, 121.575 204.326 C 121.503 213.169, 121.583 213.512, 123.805 213.827 C 126.708 214.238, 128.731 212.579, 130.507 208.330 C 131.709 205.452, 132.375 205, 135.414 205 C 139.295 205, 141 206.981, 141 211.492 C 141 213.952, 141.259 214.096, 145.167 213.807 L 149.334 213.500 155.504 196 C 158.898 186.375, 161.863 177.930, 162.093 177.232 C 162.338 176.492, 165.784 179.256, 170.377 183.876 L 178.242 191.788 172.688 193.402 C 163.133 196.180, 159.210 200.706, 157 211.500 C 155.630 218.194, 153.774 222.398, 150.709 225.750 C 147.831 228.897, 142.098 228.795, 138.216 225.528 C 135.141 222.941, 134 223.108, 134 226.146 C 134 228.758, 143.517 233.979, 148.300 233.991 C 156.663 234.011, 161.030 228.815, 166.185 212.709 C 167.807 207.644, 169.813 202.450, 170.644 201.166 C 172.627 198.105, 178.311 195.797, 183.029 196.138 C 186.787 196.409, 190.027 194.771, 189.970 192.628 C 189.954 192.007, 183.675 184.812, 176.018 176.638 L 162.094 161.776 177.297 148.837 L 192.500 135.898 193.046 140.199 C 194.113 148.607, 197.705 152.012, 205.473 151.978 C 212.794 151.946, 218.452 149.027, 221.761 143.576 C 225.986 136.614, 229.453 138.206, 227.109 146.030 C 225.600 151.066, 221.778 155.537, 216.624 158.294 C 210.882 161.365, 194.231 161.434, 185.869 158.420 C 180.483 156.479, 180.188 156.469, 179.119 158.182 C 178.503 159.167, 178 160.186, 178 160.446 C 178 161.336, 190.489 164.775, 198.279 166.030 C 213.265 168.445, 226.815 165.042, 232.643 157.401 C 236.354 152.537, 237.081 142.015, 234.042 137.190 C 231.705 133.481, 226.754 131, 221.690 131 C 218.597 131, 218.213 131.347, 217.065 135.178 C 215.296 141.080, 213.093 144.063, 209.343 145.630 C 202.756 148.382, 198.285 143.555, 201.109 136.738 C 202.792 132.673, 208.234 126.604, 212.347 124.203 C 215.090 122.602, 217.206 122.416, 228.623 122.778 L 241.746 123.194 240.917 126.847 C 239.902 131.319, 241.950 142.022, 244.943 147.889 C 247.307 152.522, 246.981 152.338, 250.467 151.013 C 253.040 150.034, 253.049 149.995, 251.401 146.808 C 248.417 141.039, 248.431 132.520, 251.438 123.578 L 254.101 115.657 252.086 113.641 C 250.214 111.770, 249.942 111.743, 248.267 113.258 C 244.321 116.829, 237.645 118.956, 230.309 118.978 C 223.158 119, 220.894 118.121, 223.261 116.243 C 224.977 114.882, 256.199 98.234, 257.796 97.829 C 258.647 97.613, 261.667 104.007, 266.598 116.469 C 270.727 126.902, 274.302 135.635, 274.542 135.875 C 274.994 136.327, 283 132.977, 283 132.337 C 283 132.139, 279.850 123.725, 276 113.639 C 272.150 103.553, 269 94.816, 269 94.224 C 269 92.774, 287.287 85.799, 302.303 81.522 C 328.181 74.152, 365.885 68.227, 389.959 67.748 L 402.418 67.500 403.353 70.110 C 404.781 74.099, 403.435 78, 400.630 78 C 399.348 78, 396.879 78.495, 395.145 79.099 C 392.270 80.102, 391.672 79.919, 388.384 77.032 C 380.120 69.776, 371.980 70.165, 364.276 78.185 L 361.052 81.541 364.691 84.445 L 368.330 87.349 371.415 83.785 C 376.798 77.566, 382.509 76.252, 387.408 80.107 L 390.087 82.213 386.435 85.370 L 382.783 88.526 386.578 91.226 L 390.372 93.926 393.702 90.035 C 397.604 85.476, 402.844 83.311, 405.951 84.974 C 407.652 85.884, 407.998 87.040, 407.986 91.785 C 407.979 94.928, 407.705 98.499, 407.378 99.719 C 406.816 101.816, 406.625 101.858, 403.941 100.469 C 399.906 98.383, 391.946 98.622, 381.394 101.146 C 370.123 103.842, 368.517 103.419, 369.387 97.983 C 370.025 93.989, 369.582 93.456, 366.582 94.607 C 364.579 95.375, 364.489 100.842, 366.403 105.423 C 368.937 111.487, 375.987 111.907, 392.993 107.007 C 398.941 105.293, 405.743 105.743, 408 108 C 410.896 110.896, 413.802 110.573, 414.731 107.250 C 415.154 105.737, 415.500 100.301, 415.500 95.168 C 415.500 85.940, 415.465 85.804, 412.313 82.988 C 409.622 80.584, 409.349 79.955, 410.563 78.948 C 411.439 78.221, 412 75.922, 412 73.057 L 412 68.359 420.750 68.799 C 425.563 69.042, 429.703 69.427, 429.951 69.655 C 430.338 70.010, 428.019 93.445, 426.274 106.815 L 425.710 111.129 430.098 110.815 L 434.485 110.500 435.631 101 C 436.261 95.775, 437.328 86.888, 438.001 81.250 L 439.225 71 442.487 71 C 445.342 71, 445.828 70.609, 446.375 67.875 C 447.449 62.503, 447.237 62.133, 442.894 61.807 C 438.994 61.515, 438.696 61.258, 436.969 56.692 C 433.178 46.674, 425.874 40.684, 414.554 38.311 C 407.201 36.769, 403.614 36.797, 394.438 38.463 M 473.109 69.250 C 470.614 75.919, 470.170 75.406, 480.621 77.926 C 485.917 79.203, 496.607 82.150, 504.375 84.476 C 516.083 87.980, 518.500 89.028, 518.500 90.598 C 518.500 92.788, 521.017 92.873, 490.250 89.648 L 469 87.421 469.014 90.461 C 469.039 96.022, 469.995 97.776, 473.342 98.406 C 478.805 99.433, 488.721 104.701, 493.522 109.127 C 498.710 113.909, 502.226 119.450, 504.072 125.750 C 506.307 133.383, 507.873 131.727, 517.540 111.500 C 522.404 101.325, 526.692 93, 527.070 93 C 527.673 93, 539.027 97.930, 539.791 98.523 C 539.952 98.648, 535.789 106.973, 530.541 117.025 C 525.294 127.076, 521 135.448, 521 135.630 C 521 135.811, 522.810 136.883, 525.023 138.012 L 529.046 140.064 537.983 121.479 L 546.920 102.894 550.242 103.517 C 553.328 104.097, 553.689 103.874, 555.362 100.366 C 557.066 96.794, 557.070 96.524, 555.432 95.327 C 552.808 93.408, 533.046 85.230, 519 80.250 C 507.711 76.248, 476.852 67, 474.787 67 C 474.327 67, 473.572 68.013, 473.109 69.250 M 326.929 78.369 C 322.173 79.650, 315.199 83.365, 310.963 86.876 L 308.500 88.917 312.992 92.835 C 317.453 96.726, 317.495 96.738, 318.892 94.627 C 326.138 83.673, 334.729 80.584, 340.407 86.888 C 342.069 88.733, 342.169 89.494, 341.179 92.798 C 338.315 102.356, 327.278 110, 316.341 110 C 306.988 110, 298.979 106.502, 285.309 96.446 C 283.683 95.250, 282.652 95.100, 281.309 95.863 C 279.704 96.776, 280.347 97.724, 287 104.262 C 295.198 112.317, 301.804 116.028, 311.479 118.011 C 323.737 120.524, 334.876 117.198, 342.727 108.680 C 356.500 93.738, 345.837 73.280, 326.929 78.369 M 499.456 99.708 L 496.411 100.096 501.868 106.053 L 507.324 112.010 510.662 105.988 C 512.498 102.676, 514 99.748, 514 99.483 C 514 98.948, 504.229 99.100, 499.456 99.708 M 565.240 106.110 C 556.905 110.236, 553.681 119.304, 558.170 126 C 563.077 133.319, 577.437 136.665, 584.359 132.102 C 593.810 125.871, 593.175 113.078, 583.078 106.274 C 578.632 103.278, 571.102 103.208, 565.240 106.110 M 567.255 113.058 C 563.260 114.285, 560.560 118.110, 561.381 121.380 C 562.537 125.989, 573.473 128.385, 582.238 125.951 C 588.481 124.217, 589.855 118.452, 584.903 114.769 C 581.846 112.496, 572.148 111.556, 567.255 113.058 M 601.442 129.061 C 598.622 132.004, 598.612 132.056, 600.546 133.885 C 602.285 135.530, 637.551 166.574, 646.863 174.657 C 648.863 176.393, 650.275 178.017, 650 178.264 C 648.252 179.841, 640.573 185, 639.975 185 C 639.576 185, 639.001 183.762, 638.697 182.250 C 637.305 175.322, 629.976 168.569, 622.659 167.472 C 618.560 166.857, 618.426 166.713, 616.785 161.145 C 613.325 149.402, 606.157 143.346, 596.785 144.247 C 591.268 144.777, 587.629 147.038, 584.162 152.092 C 581.393 156.127, 581.585 162.178, 584.614 166.378 C 586.541 169.051, 594.312 173.323, 599.250 174.425 C 601.966 175.031, 602 174.976, 602 170.019 C 602 165.097, 601.941 165, 598.968 165 C 592.937 165, 587 161.064, 587 157.066 C 587 154.348, 591.073 152, 595.788 152 C 607.400 152, 614 159.467, 614 172.605 L 614 179.896 617.066 178.827 C 618.752 178.239, 622.437 177.980, 625.254 178.250 C 629.547 178.663, 630.912 179.328, 633.688 182.357 C 635.510 184.344, 637 186.583, 637 187.332 C 637 188.081, 632.540 192.220, 627.088 196.530 L 617.177 204.365 619.707 207.683 C 621.099 209.507, 622.524 211, 622.875 211 C 623.225 211, 630.867 205.105, 639.857 197.901 C 648.847 190.696, 656.516 185.184, 656.901 185.651 C 660.583 190.123, 665 195.926, 665 196.291 C 665 196.541, 657.373 202.019, 648.051 208.465 L 631.102 220.184 633.301 223.580 C 634.511 225.447, 635.847 226.981, 636.272 226.988 C 636.696 226.994, 644.346 222.133, 653.272 216.184 C 662.197 210.235, 670.001 205.071, 670.614 204.709 C 671.281 204.314, 674.427 208.104, 678.455 214.153 L 685.182 224.257 681.452 223.557 C 675.774 222.492, 667.392 222.720, 663.231 224.052 C 648.299 228.835, 643.969 245.729, 654.931 256.433 L 658.924 260.331 659.991 257.416 C 660.579 255.812, 661.248 253.960, 661.479 253.300 C 661.710 252.640, 660.375 251.159, 658.513 250.008 C 654.041 247.244, 652.495 242.702, 654.224 237.407 C 656.103 231.653, 660.270 229.818, 670.588 230.200 C 677.956 230.473, 679.158 230.820, 684.088 234.095 C 691.025 238.703, 699.499 246.924, 698.370 247.952 C 697.892 248.387, 692.100 251.131, 685.500 254.048 C 678.900 256.965, 672.987 259.835, 672.360 260.426 C 671.637 261.107, 671.407 263.597, 671.732 267.226 C 672.219 272.676, 672.443 273.071, 676.372 275.403 C 678.642 276.751, 683.572 280.970, 687.328 284.780 L 694.155 291.707 689.718 292.315 C 684.708 293.002, 675.427 296.336, 672.671 298.440 C 671.200 299.563, 671.056 300.236, 671.934 301.877 L 673.026 303.917 676.716 301.740 C 681.800 298.740, 689.967 298.744, 696.066 301.750 C 698.577 302.988, 700.891 304, 701.208 304 C 701.525 304, 702.557 300.846, 703.502 296.992 C 705.591 288.468, 705.863 289.003, 692.971 276.293 L 683.711 267.165 692.836 262.583 C 697.854 260.062, 702.410 258, 702.960 258 C 704.388 258, 707.422 264.316, 713.480 279.899 C 725.110 309.815, 728.470 323.917, 726.075 332.753 C 724.617 338.127, 721.579 340.225, 715.855 339.811 C 710.328 339.412, 709.035 337.036, 709.015 327.250 L 709 320 703.500 320 L 698 320 698 324.134 C 698 332.649, 701.049 338.380, 708.349 343.587 L 711.198 345.620 708.625 349.410 C 705.033 354.704, 704.398 359.136, 706.459 364.533 C 707.393 366.978, 708.556 369.226, 709.044 369.527 C 709.717 369.943, 718 365.366, 718 364.579 C 718 364.493, 717.100 362.658, 716 360.500 C 713.539 355.674, 713.472 352.870, 715.750 350.072 C 717.393 348.054, 717.746 348.006, 721.500 349.301 C 729.236 351.968, 732.747 361.262, 729.118 369.467 C 726.404 375.601, 722.976 377, 710.657 377 C 705.483 377, 699.844 377.281, 698.125 377.625 C 695.139 378.222, 695 378.467, 695 383.112 L 695 387.974 702.250 387.508 C 706.237 387.252, 715.437 386.807, 722.692 386.520 L 735.885 385.998 736.192 390.249 L 736.500 394.500 741 394.500 L 745.500 394.500 745.811 388.500 C 745.982 385.200, 745.844 381.013, 745.505 379.195 L 744.889 375.890 737.838 376.585 L 730.787 377.279 733.566 373.080 C 736.803 368.189, 737.879 360.194, 736.048 354.647 C 735.399 352.679, 732.824 348.797, 730.327 346.019 L 725.787 340.969 728.439 337.491 C 732.280 332.455, 734.953 326.048, 734.978 321.815 C 735.078 305.079, 714.831 253.783, 696.779 225.039 C 689.109 212.824, 667.422 183.991, 657.638 173 C 649.250 163.577, 631.557 147.257, 617 135.518 C 604.316 125.289, 604.845 125.508, 601.442 129.061 M 548.068 134.904 C 546.931 136.502, 546 138.241, 546 138.768 C 546 139.296, 547.762 140.949, 549.917 142.442 C 558.790 148.591, 570 162.556, 570 167.460 C 570 169.642, 571.732 169.370, 573.006 166.988 C 574.937 163.380, 569.879 154.315, 557.250 138.750 C 554.238 135.037, 551.405 132, 550.955 132 C 550.504 132, 549.206 133.307, 548.068 134.904 M 140.984 180.856 C 136.738 183.117, 132.027 190.383, 131.301 195.790 L 130.766 199.781 135.202 199.281 C 138.567 198.901, 140.059 199.202, 141.383 200.526 C 142.381 201.524, 143.490 201.892, 143.973 201.386 C 144.782 200.538, 151 181.427, 151 179.790 C 151 178.303, 144.472 178.998, 140.984 180.856 M 94.660 233.714 L 90.114 241.428 94.122 244.081 L 98.130 246.734 93.058 250.458 C 82.694 258.065, 76.933 267.689, 76.221 278.583 C 75.850 284.263, 76.166 286.586, 77.816 290.316 C 80.699 296.834, 84.528 301.548, 88.451 303.410 C 99.146 308.485, 107.899 300.898, 109.999 284.732 C 111.480 273.332, 111.754 274, 105.595 274 L 100.189 274 100.711 281.750 C 101.013 286.240, 100.746 291.289, 100.077 293.753 C 98.852 298.262, 95.398 301.406, 92.299 300.833 C 89.576 300.329, 86.962 293.936, 86.313 286.192 C 85.600 277.686, 87.575 270.627, 92.608 263.698 C 96.274 258.649, 104.046 253, 107.326 253 C 108.390 253, 114.851 256.162, 121.684 260.026 C 128.517 263.890, 134.540 266.784, 135.068 266.458 C 135.596 266.131, 136.884 264.187, 137.930 262.137 L 139.832 258.409 122.166 248.529 C 112.450 243.095, 104.356 238.547, 104.180 238.421 C 104.004 238.296, 104.823 236.307, 106 234 C 107.177 231.693, 107.996 229.682, 107.820 229.530 C 106.890 228.728, 100.965 226, 100.153 226 C 99.632 226, 97.160 229.471, 94.660 233.714 M 64.673 303.750 C 63.879 305.091, 59.923 320.256, 60.276 320.609 C 60.464 320.798, 62.289 321.300, 64.330 321.726 L 68.042 322.500 63.876 328 C 54.921 339.823, 51.803 352.894, 55.381 363.621 C 57.267 369.277, 63.277 377.491, 67.244 379.835 C 69.857 381.378, 70.097 381.348, 72.244 379.197 C 74.364 377.075, 74.486 376.217, 74.266 364.992 C 73.945 348.563, 76.096 343.935, 81.643 349.123 C 84.966 352.232, 86.054 354.315, 87.972 361.241 L 89.563 366.982 93.290 364.449 C 97.695 361.455, 97.641 360.458, 92.464 349.271 C 89.082 341.963, 84.940 338.012, 80.651 338.004 C 77.524 337.997, 73.267 343.698, 70.742 351.276 C 66.851 362.950, 63 360.947, 63 347.251 C 63 339.756, 65.052 334.512, 70.269 328.673 L 73.500 325.057 90 329.017 C 99.075 331.195, 107.194 332.983, 108.043 332.989 C 109.871 333.002, 112.663 324.023, 111.123 323.084 C 110.595 322.763, 101.690 320.286, 91.332 317.581 C 80.974 314.875, 72.335 312.536, 72.134 312.382 C 71.933 312.228, 72.249 310.726, 72.835 309.044 C 73.856 306.116, 73.749 305.922, 70.328 304.493 C 66.293 302.807, 65.309 302.677, 64.673 303.750 M 0.439 400 C 0.439 415.125, 0.578 421.313, 0.748 413.750 C 0.917 406.188, 0.917 393.813, 0.748 386.250 C 0.578 378.688, 0.439 384.875, 0.439 400 M 214.666 640.826 C 211.968 643.643, 211.966 643.659, 213.963 645.467 C 215.313 646.688, 215.782 648.020, 215.399 649.546 C 214.930 651.415, 215.791 652.521, 220.319 655.866 C 223.338 658.096, 226.838 661.368, 228.097 663.136 C 230.811 666.948, 230.968 672.273, 228.447 675.058 C 226.725 676.962, 221.207 678.984, 217.705 678.994 C 214.595 679.004, 211 674.473, 211 670.545 C 211 667.430, 210.697 667, 208.500 667 C 206.151 667, 206 667.316, 206.002 672.250 C 206.003 678.749, 208.379 683.699, 213 686.835 C 216.311 689.082, 217.067 689.176, 227 688.587 C 232.775 688.245, 240.314 687.693, 243.752 687.362 C 250.905 686.672, 255.024 687.944, 258.034 691.770 C 261.355 695.992, 260.634 701.202, 255.576 709.533 L 251.153 716.819 256.197 718.989 C 258.971 720.183, 261.563 720.786, 261.956 720.330 C 262.350 719.873, 266.184 711.625, 270.476 702 C 274.769 692.375, 278.399 684.356, 278.544 684.180 C 278.688 684.004, 280.552 684.751, 282.685 685.839 C 292.373 690.782, 317.814 697.791, 337.750 701.010 C 343.776 701.983, 345 702.499, 345 704.068 C 345 705.887, 344.021 705.932, 318 705.317 C 291.868 704.700, 291 704.741, 290.989 706.590 C 290.983 707.640, 290.699 710.188, 290.358 712.250 C 289.762 715.857, 289.848 716.001, 292.619 716.015 C 297.988 716.042, 308.468 719.069, 316 722.766 C 321.635 725.533, 325.730 728.644, 332.471 735.280 C 340.041 742.732, 341.991 744.141, 344.957 744.306 L 348.472 744.500 351.515 725 L 354.559 705.500 363.529 706 C 368.463 706.275, 384.313 706.500, 398.751 706.500 C 418.287 706.500, 425.001 706.802, 425.001 707.683 C 425 708.333, 424.212 709.093, 423.250 709.372 C 422.288 709.650, 411.150 712.856, 398.500 716.494 C 385.850 720.133, 374.706 723.343, 373.736 723.627 C 372.121 724.100, 372.182 724.495, 374.462 728.319 L 376.952 732.494 386.726 732.162 C 402.201 731.638, 414.512 735.377, 424.798 743.724 C 428.754 746.935, 429.459 747.158, 433.650 746.530 L 438.205 745.847 437.569 735.673 C 437.219 730.078, 436.687 723.409, 436.387 720.854 C 435.844 716.236, 435.863 716.200, 439.476 715.008 C 441.475 714.348, 446.316 713.788, 450.233 713.764 C 456.426 713.725, 457.590 714.010, 459.163 715.952 C 460.487 717.588, 460.713 718.668, 460.007 719.988 C 458.950 721.963, 454.047 724, 450.351 724 C 447.588 724, 447.500 724.560, 449.513 729.378 C 451.246 733.525, 452.551 733.780, 457.945 731.028 C 463.034 728.432, 466 724.523, 466 720.412 C 466 711.735, 460.106 707.783, 446.250 707.170 C 439.765 706.884, 437 706.390, 437 705.519 C 437 704.728, 439.295 704.041, 443.309 703.630 C 446.779 703.274, 455.182 701.625, 461.982 699.964 C 468.782 698.304, 474.677 697.295, 475.083 697.723 C 475.488 698.150, 478.164 707.050, 481.029 717.500 C 483.894 727.950, 486.315 736.593, 486.409 736.707 C 486.686 737.042, 494.816 734.517, 495.427 733.906 C 495.735 733.598, 493.737 725.293, 490.986 715.450 C 488.236 705.607, 485.876 696.954, 485.743 696.219 C 485.583 695.344, 489.285 693.594, 496.500 691.134 C 509.707 686.630, 528.139 678.593, 540.640 671.886 C 547.003 668.473, 549.926 667.365, 550.263 668.242 C 550.666 669.294, 539.805 678.168, 508.895 702.043 C 506.955 703.542, 507.031 703.683, 511.505 706.897 C 515.646 709.870, 516.286 710.055, 517.807 708.720 C 520.823 706.071, 527.800 703.020, 534.729 701.319 C 541.598 699.633, 566.636 698.932, 572 700.276 C 573.619 700.681, 575.289 700.303, 576.741 699.201 L 578.981 697.500 568.538 680.060 L 558.095 662.620 561.797 660.156 C 563.834 658.801, 565.649 657.575, 565.831 657.431 C 566.222 657.124, 564.598 654.217, 562.656 651.749 C 561.375 650.121, 560.762 650.339, 553.889 654.853 C 520.283 676.928, 473.467 691.895, 420.500 697.498 C 390.342 700.688, 360.341 698.168, 325.159 689.489 C 289.099 680.594, 253.214 664.028, 225.321 643.400 C 221.305 640.430, 217.874 638, 217.697 638 C 217.519 638, 216.156 639.272, 214.666 640.826 M 235 668.894 L 235 674.788 242.828 675.144 C 252.315 675.575, 256.078 677.934, 260.891 686.462 C 262.611 689.508, 264.263 692, 264.564 692 C 265.197 692, 270.230 680.895, 269.792 680.462 C 269.251 679.925, 236.020 663, 235.507 663 C 235.228 663, 235 665.652, 235 668.894 M 546.617 684.483 L 539.734 690.870 551.117 691.185 C 557.378 691.358, 562.585 691.490, 562.689 691.478 C 563.141 691.426, 554.470 678.005, 554.011 678.048 C 553.730 678.074, 550.403 680.970, 546.617 684.483 M 546.994 704.934 C 544.040 705.833, 538 708.873, 538 709.461 C 538 709.686, 538.457 711.073, 539.017 712.544 C 539.788 714.574, 540.344 714.959, 541.324 714.146 C 542.034 713.557, 545.182 712.406, 548.319 711.589 C 555.545 709.707, 556 709.402, 556 706.441 C 556 704.336, 555.553 704.012, 552.750 704.086 C 550.962 704.133, 548.372 704.515, 546.994 704.934 M 325.500 718.842 C 327.150 719.851, 331.038 722.999, 334.140 725.838 C 337.242 728.677, 339.994 731, 340.254 731 C 340.515 731, 341.006 728.975, 341.345 726.501 C 341.684 724.026, 342.244 720.876, 342.589 719.501 L 343.217 717 332.858 717.004 L 322.500 717.007 325.500 718.842 M 415.500 721.521 L 405.500 724.630 410.939 727.369 C 413.931 728.875, 418.565 731.712, 421.236 733.674 C 423.908 735.635, 426.361 736.973, 426.686 736.647 C 427.012 736.321, 426.879 732.085, 426.389 727.233 L 425.500 718.411 415.500 721.521 M 304.607 730.582 C 303.390 733.753, 304.007 735.785, 306.367 736.377 C 307.669 736.704, 311.006 738.534, 313.783 740.445 L 318.833 743.918 319.890 740.887 C 320.832 738.183, 320.652 737.578, 318.223 735.292 C 315.520 732.748, 308.549 729.064, 306.357 729.022 C 305.728 729.010, 304.941 729.712, 304.607 730.582" stroke="none" fill="#30af6d" fill-rule="evenodd"/></svg>