<?xml version="1.0" standalone="no"?>
<!DOCTYPE svg PUBLIC "-//W3C//DTD SVG 20010904//EN"
 "http://www.w3.org/TR/2001/REC-SVG-20010904/DTD/svg10.dtd">
<svg version="1.0" xmlns="http://www.w3.org/2000/svg"
 width="652.000000pt" height="652.000000pt" viewBox="0 0 652.000000 652.000000"
 preserveAspectRatio="xMidYMid meet">

<g transform="translate(0.000000,652.000000) scale(0.100000,-0.100000)"
fill="#081722" stroke="none">
<path d="M3228 6396 c-64 -128 -43 -115 -213 -137 -49 -7 -92 -14 -94 -16 -3
-2 36 -45 87 -96 l91 -92 -19 -109 c-30 -164 -38 -157 95 -87 l114 61 116 -61
c72 -38 115 -56 115 -47 0 7 -9 65 -20 128 l-20 115 92 92 c51 51 90 94 87 96
-2 2 -44 9 -94 16 -170 22 -149 9 -213 137 -31 63 -59 114 -62 114 -3 0 -31
-51 -62 -114z" fill="#edd601"/>
<path d="M2339 5988 c-23 -46 -42 -84 -43 -85 -1 -2 -38 -8 -82 -14 -43 -6
-85 -13 -93 -15 -10 -3 7 -27 54 -74 l68 -68 -17 -90 c-9 -49 -16 -93 -16 -96
0 -4 38 14 85 39 l85 47 92 -47 c58 -31 89 -42 85 -32 -3 8 -11 52 -18 97
l-13 81 69 69 c74 75 74 74 -10 85 -122 15 -114 9 -157 101 -21 46 -41 84 -43
84 -3 0 -23 -37 -46 -82z" fill="gold"/>
<path d="M4149 5988 c-23 -46 -42 -84 -43 -85 -1 -2 -38 -8 -82 -14 -43 -6
-85 -13 -93 -15 -10 -3 7 -27 54 -74 l68 -69 -12 -78 c-7 -43 -15 -86 -18 -97
-4 -15 12 -9 84 29 l90 48 87 -48 88 -48 -6 29 c-3 16 -11 60 -17 98 l-11 68
68 69 c46 46 63 70 53 73 -8 2 -50 9 -93 15 -44 6 -81 12 -82 14 -1 1 -20 39
-43 85 -23 45 -43 82 -46 82 -3 0 -23 -37 -46 -82z" fill="gold"/>
<path d="M1348 5518 c-99 -100 -141 -182 -146 -285 -3 -40 1 -86 7 -104 10
-28 7 -35 -32 -84 -23 -30 -45 -54 -49 -54 -3 -1 -2 16 4 37 12 44 5 183 -13
231 l-12 35 -34 -39 c-46 -53 -101 -167 -113 -235 -11 -61 -1 -140 25 -191 16
-29 15 -33 -12 -95 l-28 -64 -12 84 c-8 56 -23 105 -44 147 l-31 63 -29 -55
c-81 -161 -75 -326 15 -429 l22 -25 -21 -95 -22 -94 -12 77 c-7 42 -25 102
-41 135 -29 56 -84 121 -95 110 -3 -3 -13 -38 -21 -79 -37 -174 15 -331 130
-396 13 -7 14 -28 9 -138 l-7 -130 -11 57 c-15 71 -41 142 -70 188 -24 37
-109 120 -123 120 -15 0 -23 -110 -13 -176 5 -33 19 -84 31 -112 26 -59 99
-133 152 -152 l35 -13 7 -81 c11 -146 10 -149 -28 -69 -40 83 -88 139 -155
182 -70 45 -75 43 -68 -31 13 -137 65 -238 151 -296 27 -18 66 -35 87 -38 22
-4 39 -8 39 -10 0 -7 31 -150 36 -169 4 -11 -7 -2 -23 20 -60 82 -141 140
-227 163 l-38 11 7 -36 c14 -75 58 -164 106 -218 54 -58 110 -89 181 -100 l46
-7 31 -75 30 -75 -44 36 c-60 49 -138 84 -208 92 l-57 7 16 -39 c65 -157 186
-255 318 -258 59 -2 60 -2 88 -46 53 -83 54 -82 -17 -48 -51 24 -84 31 -150
36 -72 4 -85 3 -85 -11 0 -20 64 -101 119 -150 73 -66 173 -96 256 -77 l48 11
53 -52 c30 -29 52 -55 50 -57 -2 -2 -25 4 -50 12 -54 18 -173 21 -231 5 l-40
-11 62 -58 c86 -81 173 -122 260 -124 44 -1 84 5 115 17 l46 18 59 -43 59 -43
-101 -1 c-102 0 -193 -23 -202 -51 -5 -15 75 -70 149 -99 88 -36 169 -41 243
-15 l60 20 22 -26 22 -27 -57 -23 c-61 -24 -103 -52 -106 -68 -2 -14 132 -63
209 -75 112 -18 240 21 299 91 l23 26 94 -19 c54 -11 160 -21 252 -25 136 -5
157 -4 157 9 0 13 -20 16 -119 17 -174 1 -317 24 -486 78 -86 28 -91 31 -115
73 -13 25 -47 69 -76 98 -40 42 -53 64 -63 105 -15 68 -58 142 -124 213 l-54
58 -13 -24 c-7 -13 -15 -54 -18 -91 -6 -83 14 -146 68 -214 21 -27 37 -51 35
-53 -3 -4 -147 89 -176 115 -15 12 -15 20 -2 76 27 115 1 235 -77 357 l-33 52
-23 -38 c-62 -102 -52 -219 27 -344 14 -22 -12 -1 -73 59 l-96 93 25 53 c49
108 49 212 1 344 -27 74 -33 79 -58 50 -68 -79 -89 -201 -51 -298 11 -30 19
-57 17 -59 -3 -2 -34 40 -70 94 -61 92 -65 100 -50 119 8 11 29 49 46 85 26
51 33 80 36 145 4 83 -11 190 -30 201 -16 10 -76 -56 -105 -115 -27 -55 -36
-139 -21 -206 8 -36 -56 94 -73 147 -12 36 -11 39 26 79 20 23 51 71 68 107
27 57 31 79 35 174 3 59 2 108 -2 108 -18 0 -64 -32 -98 -67 -43 -45 -77 -115
-78 -160 0 -62 -18 -42 -35 40 l-17 83 69 69 c53 53 75 84 91 128 22 59 48
194 39 204 -10 9 -95 -35 -135 -71 -22 -20 -49 -59 -61 -86 -12 -28 -24 -50
-26 -50 -3 0 -5 36 -5 79 l0 79 53 30 c62 35 107 83 141 150 27 55 62 159 55
167 -10 10 -109 -22 -147 -48 -22 -14 -53 -47 -70 -73 l-32 -47 0 44 c0 75 11
119 29 119 31 0 120 49 166 91 43 39 93 114 123 183 l13 29 -63 -5 c-94 -8
-163 -51 -221 -138 -22 -31 -21 -26 4 80 l20 88 58 6 c83 9 166 53 232 122 82
87 102 116 87 126 -22 13 -122 9 -173 -8 -47 -17 -121 -79 -158 -134 -19 -28
13 65 54 159 l24 53 95 2 c81 1 104 5 154 29 67 31 199 134 193 151 -5 17 -66
35 -119 35 -69 1 -146 -32 -211 -90 -31 -28 -57 -48 -57 -44 0 10 32 58 97
141 l62 81 53 -13 c69 -18 132 -18 199 2 55 16 165 71 207 105 l24 18 -33 20
c-78 48 -187 48 -279 1 -22 -11 -40 -18 -40 -16 0 16 106 77 151 87 119 25
202 90 249 193 46 99 46 106 12 106 -48 0 -154 -37 -198 -69 -49 -37 -88 -90
-118 -164 -20 -50 -37 -69 -101 -117 -17 -13 -17 -11 4 25 56 96 87 229 72
310 l-7 40 -76 -77z" fill="LimeGreen"/>
<path d="M5086 5546 c-12 -75 18 -206 65 -285 11 -18 18 -35 16 -37 -2 -2 -20
9 -41 24 -26 19 -45 46 -61 86 -32 80 -71 132 -123 168 -49 34 -147 68 -194
68 -28 0 -30 -2 -23 -27 11 -45 52 -126 84 -164 36 -44 128 -93 201 -108 30
-7 66 -20 80 -31 l25 -20 -61 0 c-64 0 -124 -16 -169 -46 l-26 -17 43 -29
c128 -87 225 -120 342 -116 l89 2 38 -49 c21 -27 48 -67 60 -90 l23 -40 -55
49 c-77 70 -127 91 -219 91 -49 0 -85 -6 -104 -16 l-28 -16 67 -57 c37 -31 95
-71 128 -89 57 -29 70 -32 159 -32 l97 0 35 -75 c20 -41 42 -95 51 -120 l15
-45 -22 30 c-36 50 -93 100 -134 120 -42 20 -137 31 -179 21 l-26 -7 20 -31
c11 -18 46 -59 78 -92 68 -69 151 -112 235 -122 l57 -6 16 -77 c9 -42 19 -85
22 -96 4 -16 2 -15 -13 5 -62 90 -128 130 -221 138 l-64 5 11 -29 c38 -101
129 -205 215 -245 33 -16 67 -29 76 -29 16 0 29 -59 29 -134 0 -29 -1 -29 -30
16 -17 25 -48 58 -70 73 -39 27 -138 60 -149 50 -7 -8 28 -112 56 -168 32 -64
80 -116 142 -152 l51 -30 0 -66 c0 -36 -3 -68 -6 -72 -4 -3 -17 16 -31 43 -13
27 -41 63 -61 81 -38 34 -120 75 -129 65 -10 -9 15 -141 38 -203 16 -45 38
-74 91 -127 l69 -68 -17 -82 c-21 -105 -33 -127 -34 -61 -1 62 -29 128 -78
178 -32 34 -80 67 -97 67 -3 0 -5 -40 -5 -88 0 -134 30 -217 109 -305 39 -44
40 -42 -24 -182 l-31 -70 4 92 c4 85 2 97 -22 147 -24 50 -84 116 -105 116
-13 0 -31 -107 -31 -186 0 -81 21 -150 69 -226 l30 -46 -60 -89 c-78 -113 -96
-132 -68 -69 47 108 33 234 -36 312 l-33 39 -22 -50 c-12 -27 -29 -84 -37
-125 -18 -85 -9 -158 29 -249 l21 -52 -88 -89 c-49 -49 -91 -87 -94 -85 -2 3
3 13 11 22 26 30 57 99 69 152 12 56 -7 152 -40 204 l-18 29 -20 -29 c-89
-125 -121 -268 -89 -391 l13 -53 -76 -54 c-42 -30 -94 -64 -116 -76 l-40 -23
56 61 c68 74 94 145 86 232 -3 31 -10 70 -17 86 l-12 30 -58 -62 c-96 -101
-151 -247 -134 -354 l6 -36 -100 -41 c-119 -50 -140 -53 -86 -12 93 67 145
205 118 307 -6 22 -8 22 -66 -19 -116 -82 -188 -184 -212 -302 l-13 -61 -79
-17 c-85 -18 -199 -29 -333 -32 -62 -1 -86 -5 -89 -15 -7 -20 292 -8 415 17
l92 19 28 -29 c15 -16 56 -43 91 -60 55 -27 75 -32 140 -31 82 0 168 20 241
58 l45 23 -48 30 c-69 44 -140 65 -223 66 -39 1 -69 3 -67 5 2 2 38 19 80 38
l77 33 66 -33 c58 -28 75 -32 146 -31 58 0 95 7 133 22 71 29 164 90 160 104
-2 6 -26 20 -53 31 -39 16 -72 21 -151 21 l-101 1 59 43 59 43 47 -18 c31 -12
71 -18 115 -17 87 2 169 41 258 123 l64 59 -40 11 c-56 15 -173 14 -230 -4
-27 -8 -50 -13 -52 -12 -1 2 21 27 50 55 l53 53 50 -11 c113 -24 234 35 336
163 58 74 54 80 -47 75 -71 -4 -95 -10 -152 -39 l-69 -34 40 65 40 65 60 1
c120 2 228 79 295 212 42 83 41 86 -21 78 -67 -9 -146 -45 -204 -93 l-46 -37
17 40 c9 21 23 56 32 76 13 32 20 37 56 43 136 22 220 106 278 274 27 78 26
81 -18 69 -71 -19 -129 -57 -186 -118 -31 -34 -57 -66 -57 -72 0 -6 -2 -9 -5
-6 -3 3 2 36 10 74 8 38 17 79 20 90 3 16 15 23 42 27 49 8 123 55 158 101 37
49 75 156 82 233 7 72 2 76 -56 41 -77 -45 -145 -126 -177 -209 -26 -68 -30
-65 -22 19 3 42 7 93 7 112 1 32 5 37 38 49 53 20 127 93 154 154 19 42 24 74
27 170 3 85 1 117 -8 117 -22 0 -120 -104 -145 -154 -14 -28 -33 -84 -43 -124
l-19 -74 -7 123 c-6 112 -5 124 11 132 10 6 37 30 61 55 48 51 82 143 82 221
0 53 -26 181 -38 193 -13 13 -71 -57 -100 -120 -13 -29 -29 -85 -35 -123 l-11
-70 -22 93 -23 93 24 25 c35 37 66 115 72 179 6 65 -14 154 -54 244 l-27 59
-17 -24 c-30 -39 -59 -127 -66 -201 l-6 -71 -29 60 -29 59 22 63 c32 94 25
193 -23 292 -20 41 -52 93 -71 115 l-35 40 -16 -54 c-9 -30 -16 -86 -16 -125
l0 -71 -32 32 c-31 31 -31 33 -32 130 -1 85 -4 105 -28 153 -31 62 -105 155
-159 200 l-37 30 -6 -44z m304 -538 c0 -12 -1 -19 -3 -17 -1 2 -9 12 -16 22
-12 14 -11 17 3 17 10 0 16 -8 16 -22z" fill="LimeGreen"/>
<path d="M3055 5119 c-474 -211 -1280 -588 -1289 -601 -8 -13 -8 -23 0 -35 9
-15 443 -223 465 -223 4 0 9 6 11 14 2 10 144 -51 483 -207 467 -213 482 -220
545 -220 67 0 100 13 595 244 36 17 38 19 18 25 -13 4 -23 9 -23 13 0 3 158
78 350 165 193 88 359 166 370 173 27 19 25 49 -3 67 -12 9 -323 153 -691 321
-491 224 -678 305 -705 305 -20 0 -75 -18 -126 -41z m-235 -419 c0 -19 -7 -20
-110 -20 l-110 0 0 -65 0 -65 105 0 c98 0 105 -1 105 -20 0 -19 -7 -20 -105
-20 l-105 0 0 -70 0 -70 115 0 c108 0 115 -1 115 -20 0 -19 -7 -20 -150 -20
l-150 0 0 195 0 195 145 0 c138 0 145 -1 145 -20z m386 8 c3 -4 1 -15 -5 -27
-10 -17 -15 -19 -42 -9 -49 17 -139 5 -161 -22 -10 -12 -18 -26 -18 -31 0 -20
42 -48 96 -64 76 -22 131 -50 144 -74 28 -53 -3 -109 -75 -137 -35 -13 -64
-16 -129 -12 -99 7 -122 16 -104 41 11 14 19 15 53 6 55 -16 149 -7 175 16 25
22 26 57 3 77 -10 9 -55 28 -100 42 -96 32 -139 71 -128 115 17 65 78 93 197
88 48 -2 90 -6 94 -9z m464 -8 c0 -17 -8 -19 -82 -22 l-83 -3 -3 -172 -2 -173
-35 0 -35 0 0 175 0 175 -80 0 c-73 0 -80 2 -80 20 0 19 7 20 200 20 192 0
200 -1 200 -20z m375 0 c54 -16 120 -84 129 -132 14 -77 -29 -160 -104 -198
-52 -27 -150 -42 -250 -38 l-85 3 -3 187 -2 187 27 4 c47 9 246 -1 288 -13z"/>
<path d="M3800 4525 l0 -157 88 4 c143 7 212 59 212 158 0 99 -61 142 -207
148 l-93 4 0 -157z"/>
<path d="M2320 3860 c0 -289 1 -313 20 -349 47 -93 211 -188 417 -240 160 -41
279 -54 503 -55 225 0 343 12 515 56 79 19 221 73 239 89 6 5 -62 9 -153 9
-197 0 -200 4 -66 97 149 103 186 162 135 213 -24 24 -103 27 -154 6 -35 -15
-56 -7 -56 21 0 16 91 43 144 43 92 0 166 -48 166 -106 0 -52 -62 -125 -160
-190 l-44 -29 107 -3 c99 -2 107 -4 107 -22 0 -11 4 -20 9 -20 21 0 112 83
136 123 l25 44 -2 306 -3 306 -405 -185 c-223 -102 -431 -192 -463 -201 -48
-14 -68 -15 -112 -6 -41 9 -741 319 -877 389 l-28 15 0 -311z m360 -300 l0
-190 -35 0 -35 0 0 160 c0 88 -2 160 -5 160 -2 0 -23 -7 -45 -16 -45 -18 -46
-18 -52 9 -2 15 10 24 57 42 33 13 72 24 88 24 l27 1 0 -190z m460 168 c86
-44 111 -149 56 -242 -43 -73 -108 -108 -226 -122 -60 -7 -60 -7 -60 20 0 23
4 26 38 26 63 0 115 20 154 60 48 48 49 64 3 44 -126 -52 -274 37 -231 140 37
86 169 123 266 74z m468 -5 c3 -23 2 -23 -101 -23 l-104 0 -7 -31 c-11 -55 -9
-56 52 -61 78 -5 132 -34 155 -80 18 -37 18 -39 0 -75 -33 -69 -147 -106 -257
-83 -50 10 -57 14 -54 33 2 14 9 21 18 18 8 -2 45 -6 81 -8 99 -8 159 31 143
92 -9 38 -57 58 -144 61 -41 2 -76 3 -76 3 -2 1 22 117 31 159 5 22 7 23 133
20 123 -3 127 -4 130 -25z" fill="white"/>
<path d="M2995 3696 c-29 -12 -55 -51 -55 -80 0 -25 39 -63 72 -70 44 -9 92 2
118 26 17 16 20 27 15 51 -14 66 -87 102 -150 73z" fill="white"/>
<path d="M4290 3734 c0 -232 -6 -252 -100 -344 -353 -345 -1510 -341 -1858 7
-84 83 -92 109 -92 301 0 89 -2 162 -5 162 -15 0 -814 -365 -846 -387 -49 -32
-95 -101 -116 -172 -37 -129 20 -282 131 -351 18 -11 440 -185 937 -387 l904
-367 95 0 95 0 830 337 c457 185 841 345 855 355 22 17 49 86 38 97 -2 2 -399
-156 -883 -352 -788 -318 -886 -356 -935 -355 -49 0 -151 39 -949 361 -492
199 -906 368 -921 376 -65 34 -120 128 -120 205 0 121 108 230 229 230 34 0
222 -72 872 -335 768 -310 834 -335 890 -335 55 0 123 26 927 350 477 193 873
357 881 364 33 34 6 49 -420 241 -232 105 -425 192 -430 193 -5 2 -9 -82 -9
-194z" fill="#133955"/>
<path d="M1564 3306 c-3 -8 -4 -20 -2 -27 2 -6 386 -166 853 -357 l850 -345
75 0 75 0 825 334 c701 284 825 337 825 354 0 11 -8 21 -17 23 -10 2 -388
-146 -840 -329 -659 -266 -832 -332 -868 -332 -36 0 -215 69 -890 343 -465
188 -853 345 -862 348 -10 2 -20 -2 -24 -12z"  fill="#133955ba"/>
<path d="M1567 3123 c-22 -21 -3 -42 56 -66 34 -14 420 -170 857 -348 760
-308 798 -322 860 -323 62 0 99 14 890 334 454 183 828 338 832 344 11 17 4
31 -18 34 -11 2 -389 -146 -840 -328 -645 -260 -828 -330 -863 -330 -35 0
-223 72 -897 345 -469 190 -857 345 -862 345 -5 0 -12 -3 -15 -7z"  fill="#133955db"/>
<path d="M5865 1477 c-18 -39 -87 -186 -154 -326 -66 -140 -121 -257 -121
-260 0 -4 14 -12 30 -18 29 -11 31 -10 49 25 58 115 291 612 291 620 0 6 -14
15 -31 21 l-30 10 -34 -72z"/>
<path d="M1207 1447 c-88 -28 -146 -107 -155 -213 -12 -153 90 -274 231 -274
36 0 148 37 174 58 l22 17 -22 27 -22 28 -49 -25 c-70 -36 -153 -35 -196 1
-135 114 -43 354 120 315 73 -18 90 -31 90 -73 0 -38 0 -38 40 -38 l40 0 0 95
0 95 -40 0 c-29 0 -40 -4 -40 -15 0 -18 4 -18 -45 0 -48 17 -97 18 -148 2z"/>
<path d="M30 1410 c0 -38 2 -40 30 -40 l30 0 0 -160 0 -160 -30 0 c-28 0 -30
-2 -30 -40 l0 -40 100 0 100 0 0 40 c0 38 -2 40 -30 40 -29 0 -30 1 -30 48 0
37 5 54 21 68 21 19 21 19 60 -26 22 -25 54 -73 72 -107 l32 -63 63 0 62 0 0
40 0 40 -42 0 c-39 0 -45 4 -64 38 -12 20 -40 62 -63 92 l-41 54 67 68 c51 52
74 68 95 68 26 0 28 3 28 40 l0 40 -95 0 -95 0 0 -39 c0 -28 5 -40 16 -43 11
-2 -5 -22 -50 -61 l-66 -58 0 60 0 61 30 0 c28 0 30 2 30 40 l0 40 -100 0
-100 0 0 -40z"/>
<path d="M590 1411 l0 -40 49 -3 50 -3 -66 -157 c-59 -140 -69 -158 -90 -158
-20 0 -23 -5 -23 -40 l0 -40 95 0 95 0 0 40 c0 38 -2 40 -30 40 -32 0 -36 9
-20 41 9 17 22 19 105 19 83 0 96 -2 105 -19 16 -32 12 -41 -20 -41 -28 0 -30
-2 -30 -40 l0 -40 95 0 95 0 0 40 c0 35 -3 40 -23 40 -21 0 -32 21 -104 198
l-80 197 -102 3 -101 3 0 -40z m203 -159 c15 -35 27 -65 27 -68 0 -2 -29 -4
-65 -4 -36 0 -65 2 -65 4 0 2 11 28 23 57 13 30 27 63 31 73 9 25 17 15 49
-62z"/>
<path d="M1530 1410 c0 -38 2 -40 30 -40 l30 0 0 -160 0 -160 -30 0 c-28 0
-30 -2 -30 -40 l0 -40 100 0 100 0 0 40 c0 38 -2 40 -30 40 l-30 0 0 65 0 65
90 0 90 0 0 -65 0 -65 -30 0 c-28 0 -30 -2 -30 -40 l0 -40 100 0 100 0 0 40
c0 38 -2 40 -30 40 l-30 0 0 160 0 160 30 0 c28 0 30 2 30 40 l0 40 -100 0
-100 0 0 -40 c0 -38 2 -40 30 -40 l30 0 0 -60 0 -60 -90 0 -90 0 0 60 0 60 30
0 c28 0 30 2 30 40 l0 40 -100 0 -100 0 0 -40z"/>
<path d="M2100 1411 l0 -40 48 -3 48 -3 -65 -157 c-58 -139 -69 -157 -91 -160
-21 -3 -25 -9 -28 -40 l-3 -38 100 0 101 0 0 40 c0 39 -1 40 -35 40 l-36 0 16
30 16 30 95 0 c92 0 95 -1 104 -26 14 -35 14 -34 -20 -34 -28 0 -30 -2 -30
-40 l0 -40 95 0 95 0 0 40 c0 36 -3 40 -24 40 -26 0 -18 -17 -136 273 l-52
127 -99 0 -99 0 0 -39z m209 -180 l21 -51 -66 0 c-75 0 -73 -6 -27 98 l25 57
14 -26 c7 -15 22 -49 33 -78z"/>
<path d="M2540 1410 c0 -38 2 -40 30 -40 l30 0 0 -160 0 -160 -30 0 c-28 0
-30 -2 -30 -40 l0 -40 100 0 100 0 0 40 c0 38 -2 40 -30 40 -29 0 -30 1 -30
48 0 37 5 54 21 68 21 19 21 19 60 -26 22 -25 54 -73 72 -107 l32 -63 63 0 62
0 0 40 0 40 -42 0 c-39 0 -45 4 -64 38 -12 20 -40 62 -63 92 l-41 54 67 68
c51 52 74 68 95 68 26 0 28 3 28 40 l0 40 -95 0 -95 0 0 -39 c0 -28 5 -40 16
-43 11 -2 -5 -22 -50 -61 l-66 -58 0 60 0 61 30 0 c28 0 30 2 30 40 l0 40
-100 0 -100 0 0 -40z"/>
<path d="M3100 1411 l0 -40 49 -3 50 -3 -66 -157 c-59 -140 -69 -158 -90 -158
-20 0 -23 -5 -23 -40 l0 -40 95 0 95 0 0 40 c0 38 -2 40 -30 40 -32 0 -36 9
-20 41 9 17 22 19 105 19 83 0 96 -2 105 -19 16 -32 12 -41 -20 -41 -28 0 -30
-2 -30 -40 l0 -40 95 0 95 0 0 40 c0 35 -3 40 -23 40 -21 0 -32 21 -104 198
l-80 197 -102 3 -101 3 0 -40z m203 -159 c15 -35 27 -65 27 -68 0 -2 -29 -4
-65 -4 -36 0 -65 2 -65 4 0 2 11 28 23 57 13 30 27 63 31 73 9 25 17 15 49
-62z"/>
<path d="M3550 1360 l0 -90 35 0 35 0 0 50 0 50 55 0 55 0 0 -160 0 -160 -50
0 -50 0 0 -40 0 -40 141 0 140 0 -3 38 -3 37 -52 3 -53 3 0 160 0 159 55 0 55
0 0 -50 0 -50 35 0 35 0 0 90 0 90 -215 0 -215 0 0 -90z"/>
<path d="M4102 1413 c3 -38 3 -38 51 -41 26 -2 47 -6 47 -11 0 -4 -28 -74 -63
-156 -58 -136 -66 -150 -90 -153 -24 -3 -27 -8 -27 -43 l0 -39 100 0 100 0 0
40 c0 39 -1 40 -35 40 -39 0 -39 0 -23 35 11 24 14 25 108 25 94 0 97 -1 108
-25 16 -34 17 -33 -20 -37 -30 -3 -33 -6 -36 -40 l-3 -38 101 0 101 0 -3 37
c-2 30 -8 38 -27 43 -21 5 -36 33 -105 203 l-80 197 -104 0 -103 0 3 -37z
m205 -158 l32 -75 -65 0 c-35 0 -64 3 -64 8 0 13 55 142 61 142 3 0 19 -34 36
-75z"/>
<path d="M5030 1410 c0 -38 2 -40 30 -40 l30 0 0 -62 c0 -35 -3 -107 -7 -160
-5 -89 -8 -97 -27 -100 -16 -2 -22 -11 -24 -40 l-3 -38 100 0 101 0 0 40 c0
40 0 40 -37 40 l-38 0 5 120 c3 65 8 122 11 124 3 3 22 -44 43 -104 36 -102
40 -110 65 -110 24 0 29 8 66 110 46 128 52 124 54 -37 l1 -103 -35 0 c-34 0
-35 -1 -35 -40 l0 -40 95 0 95 0 0 40 c0 32 -4 40 -19 40 -16 0 -19 11 -25 92
-3 50 -6 122 -6 160 l0 68 30 0 c28 0 30 2 30 40 l0 40 -79 0 -79 0 -43 -114
c-24 -63 -46 -113 -50 -110 -4 2 -24 53 -45 114 l-39 110 -82 0 -83 0 0 -40z"/>
<path d="M6070 1410 l0 -40 40 0 40 0 0 -160 0 -160 -40 0 -40 0 0 -40 0 -40
210 0 210 0 0 110 0 110 -35 0 -35 0 0 -70 0 -70 -95 0 -95 0 0 159 0 160 48
3 c47 3 47 3 50 41 l3 37 -130 0 -131 0 0 -40z"/>
<path d="M1695 594 c-92 -34 -148 -124 -148 -240 0 -58 4 -79 28 -122 61 -112
172 -144 334 -96 l51 15 0 64 c0 58 2 65 20 65 16 0 20 7 20 35 l0 35 -115 0
-115 0 0 -35 0 -34 58 -3 57 -3 3 -37 c3 -35 2 -37 -33 -44 -68 -12 -152 0
-181 27 -78 71 -69 228 16 289 41 29 101 31 158 6 40 -18 42 -21 42 -63 l0
-44 38 3 37 3 3 98 3 97 -41 0 c-33 0 -40 -3 -40 -20 0 -19 0 -19 -42 0 -51
23 -98 24 -153 4z"/>
<path d="M3202 597 c-70 -26 -122 -106 -107 -165 17 -72 59 -98 178 -113 63
-7 86 -14 100 -30 23 -29 22 -45 -8 -74 -20 -21 -34 -25 -85 -25 -33 0 -76 7
-95 14 -29 13 -35 20 -35 45 0 29 -3 31 -35 31 l-35 0 0 -85 0 -85 35 0 c25 0
35 4 35 16 0 12 5 14 18 9 81 -35 186 -26 241 21 59 49 65 138 13 188 -28 26
-53 33 -189 52 -65 10 -86 74 -37 113 29 23 103 29 148 11 22 -8 26 -16 26
-50 0 -39 1 -40 35 -40 l35 0 0 90 0 90 -34 0 c-19 0 -36 -5 -38 -10 -2 -7
-15 -7 -38 0 -44 13 -86 12 -128 -3z"/>
<path d="M3730 601 c-114 -35 -183 -147 -166 -269 22 -163 148 -250 300 -208
33 10 76 27 94 38 l32 20 -20 28 -21 29 -52 -24 c-75 -35 -154 -34 -198 2 -42
36 -59 79 -59 151 0 131 110 201 233 149 34 -15 37 -19 37 -56 l0 -41 40 0 40
0 0 95 0 95 -40 0 c-29 0 -40 -4 -40 -15 0 -18 4 -18 -45 0 -43 15 -96 18
-135 6z"/>
<path d="M4710 598 c-162 -46 -213 -301 -85 -424 105 -101 270 -72 337 60 32
62 35 157 9 228 -44 114 -147 169 -261 136z m130 -83 c48 -25 75 -80 75 -155
0 -105 -56 -173 -140 -173 -86 0 -145 70 -145 172 0 100 56 171 136 171 25 0
58 -7 74 -15z"/>
<path d="M5209 596 c-66 -23 -106 -63 -136 -133 -20 -47 -22 -157 -3 -203 62
-159 246 -197 358 -75 45 48 62 95 62 174 0 80 -19 130 -70 182 -62 65 -133
83 -211 55z m139 -86 c68 -42 92 -157 50 -240 -31 -59 -66 -83 -123 -83 -57 0
-92 24 -122 83 -60 117 7 260 122 260 23 0 54 -9 73 -20z"/>
<path d="M530 560 c0 -38 2 -40 30 -40 l30 0 0 -160 0 -160 -30 0 c-28 0 -30
-2 -30 -40 l0 -40 100 0 100 0 0 40 c0 39 -1 40 -35 40 l-35 0 0 65 0 65 95 0
95 0 0 -64 0 -65 -32 -3 c-30 -3 -33 -6 -36 -41 l-3 -37 106 0 106 0 -3 38
c-3 34 -6 37 -35 40 l-33 3 0 159 0 159 33 3 c29 3 32 6 35 41 l3 37 -106 0
-106 0 3 -37 c3 -35 6 -38 36 -41 l32 -3 0 -60 0 -60 -92 3 -93 3 -3 58 -3 57
36 0 c34 0 35 1 35 40 l0 40 -100 0 -100 0 0 -40z"/>
<path d="M1082 563 l3 -38 68 -3 67 -3 0 -159 0 -159 -67 -3 -68 -3 -3 -37 -3
-38 175 0 176 0 0 40 0 40 -65 0 -65 0 0 160 0 160 65 0 65 0 0 40 0 40 -176
0 -175 0 3 -37z"/>
<path d="M2032 563 c3 -35 6 -38 36 -41 l32 -3 0 -159 0 -159 -32 -3 c-30 -3
-33 -6 -36 -40 l-3 -38 106 0 106 0 -3 37 c-3 35 -6 38 -35 41 l-33 3 0 65 0
64 95 0 95 0 0 -65 0 -65 -35 0 c-34 0 -35 -1 -35 -40 l0 -40 100 0 100 0 0
40 c0 38 -2 40 -30 40 l-30 0 0 160 0 160 30 0 c28 0 30 2 30 40 l0 40 -100 0
-100 0 0 -40 c0 -39 1 -40 35 -40 l36 0 -3 -57 -3 -58 -92 -3 -93 -3 0 60 0
60 33 3 c29 3 32 6 35 41 l3 37 -106 0 -106 0 3 -37z"/>
<path d="M4040 560 c0 -38 2 -40 30 -40 l30 0 0 -160 0 -160 -30 0 c-28 0 -30
-2 -30 -40 l0 -40 100 0 100 0 0 40 c0 38 -2 40 -30 40 l-30 0 0 65 0 65 90 0
90 0 0 -65 0 -65 -30 0 c-28 0 -30 -2 -30 -40 l0 -40 100 0 100 0 0 40 c0 38
-2 40 -30 40 l-30 0 0 160 0 160 30 0 c28 0 30 2 30 40 l0 40 -100 0 -100 0 0
-40 c0 -38 2 -40 30 -40 l30 0 0 -60 0 -60 -90 0 -90 0 0 60 0 60 30 0 c28 0
30 2 30 40 l0 40 -100 0 -100 0 0 -40z"/>
<path d="M5570 560 l0 -40 40 0 40 0 0 -160 0 -160 -40 0 -40 0 0 -40 0 -40
210 0 210 0 0 110 0 110 -35 0 -35 0 0 -70 0 -70 -100 0 -100 0 0 160 0 160
50 0 50 0 0 40 0 40 -125 0 -125 0 0 -40z"/>
</g>
</svg>
