<svg xmlns="http://www.w3.org/2000/svg" width="300" height="300"><g fill="#033e44"><path d="M208.1 63.8q-.1 0-.2.1l-.3.1-75.2 35.2c-21.8 9.3-38.4 14.6-55 20q-.1 0-.2.1 0 0-.1.1 0 .1 0 .1 0 .1 0 .2 0 0 0 .1l47.6 177q0 0 0 .1.1 0 .1 0 0 .1.1.1 0 0 0 .1 0 0 .1 0 0 0 0 0 0 0 .1 0c2.4.6 4.6 1 6.4 1.3 1.3.2 2.4.3 3.3.3 1.7 0 2.9-.3 4-.6h.1l117.7-50.7q.3-.1.3-.4v-.1l-12.1-45.8q0 0-.1 0 0-.1 0-.1 0 0 0 0 0-.1-.1-.1 0 0 0 0-.1 0-.1-.1 0 0 0 0-.1 0-.1 0 0 0 0 0 0 0-.1 0 0 0 0 0 0 0 0 0-.1 0-.1 0 0 0 0 0l-80 36.8-4.8-18.2 80-37.8q0 0 .1-.1 0 0 .1-.1 0 0 0-.1 0 0 0-.1v-.1l-12.6-47q-.1-.1-.1-.1 0-.1 0-.1 0 0-.1 0 0-.1 0-.1-.1 0-.1 0-.1 0-.1 0-.1-.1-.1 0-.1 0-.1 0l-79.7 37.5-4.8-17.7 79.5-37.8q0 0 .1-.1 0 0 .1-.1 0 0 0-.1 0-.1 0-.2l-13-51.2q0 0-.1 0 0-.1 0-.1 0-.1-.1-.1 0 0-.1 0-.1-.1-.2-.1z"/><path d="M117.1 113.5c-11.7 3.4-24 6.9-35.3 6.9q-4.1 0-8.2-.7c-13.5-2.4-25-11.7-29.3-21-4.5-9.6-1-18.6 1.8-26l6 3.5c-4 5-7.3 9.2-8.4 14.2s0 11 1.3 18v-.2l39.1 147.3-.3-.7.1.1c4.9 10 9.3 19 16.2 24.7 6.8 5.6 16.3 8.1 26.9 10.7q.7.2 1.3.6.6.4.9 1 .4.6.5 1.3.1.7-.1 1.4-.2.7-.6 1.2-.4.6-1 1-.6.4-1.3.5-.7.1-1.4-.1c-10.2-2.6-21.4-5.3-29.7-12.1-8.3-6.9-13.4-17.5-18.1-27.1h-.1q-.1-.4-.2-.7L38.1 110q0-.1-.1-.3c-1.2-6.6-2.7-14.2-1.2-20.9 1.5-6.8 6-12.3 9.8-17.1.5-.6 1.3-1.1 2.1-1.3.9-.1 1.7 0 2.4.5a3.14 3.14 0 0 1 1.6 1.8c.3.8.3 1.7 0 2.5-2.9 7.8-5 14-2 20.5 3.3 7 12.7 14.9 24.2 17q3.3.6 6.9.6c10.1 0 21.4-3.2 33.3-6.6q.7-.2 1.4-.1.7.1 1.3.4.7.3 1.1.9.4.6.6 1.2.2.7.1 1.4-.1.8-.4 1.4-.3.6-.9 1-.6.5-1.2.6z"/></g><path d="M146.7 4.4q0 0 0 0L71.8 99.6q0 0 0 .1 0 0 .1 0L165.4 29q0-.1 0-.1 0 0 0 0L146.8 4.4q0 0-.1 0z" fill="#d10f0f"/><path fill-rule="evenodd" d="M191.7 25.1q0 0 0 0L82.8 106q0 0 0 0 0 .1 0 .1.1 0 .1 0L197.3 55v-.1l-5.6-29.8q0 0 0 0zM82.8 106z" fill="#f80000"/><path d="M93.4 1q-.1 0-.1 0L60.1 94.3q0 0 .1.1 0 0 0 0l50.2-62.3L93.4 1q0 0 0 0z" fill="#b40c0c"/></svg>