<?xml version="1.0" standalone="no"?>
<!DOCTYPE svg PUBLIC "-//W3C//DTD SVG 20010904//EN"
 "http://www.w3.org/TR/2001/REC-SVG-20010904/DTD/svg10.dtd">
<svg version="1.0" xmlns="http://www.w3.org/2000/svg"
 width="512.000000pt" height="512.000000pt" viewBox="0 0 512.000000 512.000000"
 preserveAspectRatio="xMidYMid meet">

<g transform="translate(0.000000,512.000000) scale(0.100000,-0.100000)"
fill="#bbb" stroke="none">
<path d="M262 4905 c-43 -19 -67 -73 -53 -118 15 -45 4545 -4572 4583 -4581
16 -4 43 0 63 8 42 18 69 70 59 114 -4 17 -73 94 -187 210 l-181 182 187 0
187 0 0 1840 0 1840 -2028 0 -2027 0 -245 246 c-213 214 -284 275 -317 274 -4
-1 -23 -7 -41 -15z m4448 -2117 l0 -1413 -587 587 c-396 395 -597 589 -615
593 -55 14 -80 -4 -260 -183 l-179 -176 -1002 1002 -1002 1002 1823 0 1822 0
0 -1412z"/>
<path d="M3470 3563 c-65 -24 -152 -113 -175 -182 -41 -123 0 -265 98 -343
195 -154 477 -28 494 221 13 177 -125 322 -302 320 -38 0 -90 -8 -115 -16z"/>
<path d="M200 2560 l0 -1840 1882 0 1883 0 -595 595 -595 595 -125 -124 c-69
-68 -135 -129 -147 -135 -67 -34 -143 13 -143 90 0 41 4 47 130 174 72 72 130
135 130 140 0 6 -229 239 -510 520 l-509 509 -23 -20 c-28 -24 -1056 -981
-1120 -1043 l-48 -45 0 1112 0 1112 37 0 38 0 -100 100 c-95 95 -102 100 -142
100 l-43 0 0 -1840z"/>
</g>
</svg>
